<svg width="169" height="117" viewBox="0 0 169 117" fill="none" xmlns="http://www.w3.org/2000/svg">
<rect width="169" height="117" rx="11" fill="#ECECEC"/>
<g filter="url(#filter0_f_256_1819)">
<circle r="26.5542" transform="matrix(0.951057 -0.309017 0.25342 0.967356 51.9839 49.8931)" fill="url(#paint0_linear_256_1819)"/>
<mask id="mask0_256_1819" style="mask-type:alpha" maskUnits="userSpaceOnUse" x="25" y="22" width="54" height="55">
<circle r="26.2819" transform="matrix(0.951057 -0.309017 0.25342 0.967356 51.9839 49.8931)" fill="#DCDBDB" stroke="#656565" stroke-width="0.544702"/>
</mask>
<g mask="url(#mask0_256_1819)">
<path d="M69.8384 68.2507L70.1733 69.5289C71.9433 76.2853 67.9766 83.4525 61.3939 85.5914C54.7514 87.7497 47.9902 84.0021 46.2362 77.3065L45.9013 76.0283C45.2157 73.411 45.3717 70.7843 46.2219 68.3285C46.2219 68.3285 46.3377 68.0267 46.5253 67.5034L46.5691 67.423C47.4193 64.9672 49.4631 57.8963 47.4699 50.2878L45.2535 41.8271C44.6316 39.4532 46.0363 36.8832 48.3701 36.1249L48.4898 36.086C50.8237 35.3277 53.2489 36.6533 53.8708 39.0271L56.0873 47.4878C58.0964 55.1572 63.2178 59.8339 65.1204 61.3954L65.1962 61.4368C65.607 61.7657 65.8503 61.9508 65.8503 61.9508C67.6931 63.5317 69.1528 65.6333 69.8384 68.2507Z" fill="white" stroke="#606160" stroke-width="0.629223" stroke-miterlimit="10"/>
<path d="M47.8109 41.0622C48.0423 40.987 48.1656 40.6808 48.0863 40.3783C48.007 40.0757 47.7552 39.8914 47.5239 39.9666C47.2925 40.0417 47.1692 40.3479 47.2485 40.6505C47.3278 40.953 47.5796 41.1374 47.8109 41.0622Z" fill="#606160"/>
<path d="M51.0423 40.0123C51.2737 39.9371 51.397 39.6309 51.3177 39.3283C51.2385 39.0258 50.9867 38.8415 50.7553 38.9166C50.524 38.9918 50.4007 39.298 50.4799 39.6005C50.5592 39.9031 50.811 40.0874 51.0423 40.0123Z" fill="#606160"/>
<path d="M51.7475 44.9348C51.0612 45.2899 50.3431 45.5232 49.653 45.6154C48.7673 45.705 47.9138 44.9255 47.7224 44.1951L47.7065 44.1342C47.5151 43.4038 47.8584 42.2355 48.6484 41.7807C49.3346 41.4256 50.0527 41.1923 50.7429 41.1001C51.6285 41.0105 52.4821 41.79 52.6734 42.5204L52.6894 42.5812C52.8807 43.3117 52.5374 44.48 51.7475 44.9348Z" fill="#FBC83B"/>
<path d="M51.7475 44.9348C51.0612 45.2899 50.3431 45.5232 49.653 45.6154C48.7673 45.705 47.9138 44.9255 47.7224 44.1951L47.7065 44.1342C47.5151 43.4038 47.8584 42.2355 48.6484 41.7807C49.3346 41.4256 50.0527 41.1923 50.7429 41.1001C51.6285 41.0105 52.4821 41.79 52.6734 42.5204L52.6894 42.5812C52.8807 43.3117 52.5374 44.48 51.7475 44.9348Z" stroke="#606160" stroke-width="0.440456" stroke-miterlimit="10"/>
<path d="M48.4805 43.6185C48.4805 43.6185 50.2994 44.6127 51.712 42.5686" stroke="#606160" stroke-width="0.471918" stroke-miterlimit="10" stroke-linecap="round" stroke-linejoin="round"/>
<rect x="0.378652" y="0.206963" width="5.73582" height="2.36067" rx="0.649956" transform="matrix(0.951057 -0.309017 0.25342 0.967356 40.1323 38.6848)" fill="#858585" stroke="#606160" stroke-width="0.628741"/>
<rect x="0.378652" y="0.206963" width="5.73582" height="2.36067" rx="0.649956" transform="matrix(0.951057 -0.309017 0.25342 0.967356 50.5877 35.2877)" fill="#858585" stroke="#606160" stroke-width="0.628741"/>
<path d="M43.4167 33.6584C43.0422 32.2287 43.878 30.6995 45.2836 30.2428L48.2184 29.2892C49.624 28.8325 51.0671 29.6213 51.4416 31.0509L53.0484 37.1844L45.0235 39.7919L43.4167 33.6584Z" fill="#858585" stroke="#606160" stroke-width="0.626813"/>
<path d="M44.2126 36.4366C43.8381 35.0069 44.6739 33.4777 46.0795 33.021L49.0143 32.0674C50.4199 31.6107 51.863 32.3995 52.2375 33.8291L53.1112 37.1641L45.0863 39.7715L44.2126 36.4366Z" fill="#8E8D8D" stroke="#606160" stroke-width="0.626813"/>
<path d="M46.8198 29.769L47.5163 32.4277" stroke="#606160" stroke-width="0.628741"/>
<path fill-rule="evenodd" clip-rule="evenodd" d="M61.9937 58.3947L61.0116 63.2518C60.9379 63.6166 60.6732 63.9175 60.3272 64.0299L51.744 66.8187C51.4005 66.9304 51.0346 66.8373 50.796 66.5777L47.7104 63.2205C47.3398 65.0991 46.8817 66.5725 46.5769 67.4528L46.533 67.5331C46.3454 68.0564 46.2297 68.3582 46.2297 68.3582C45.3795 70.8141 45.2234 73.4407 45.9091 76.0581L46.244 77.3363C47.998 84.0318 54.7591 87.7795 61.4017 85.6212C67.9844 83.4823 71.951 76.3151 70.181 69.5587L69.8462 68.2805C69.1605 65.6631 67.7008 63.5615 65.8581 61.9806C65.8581 61.9806 65.6148 61.7954 65.2039 61.4666L65.1281 61.4252C64.4202 60.8442 63.2667 59.8319 61.9937 58.3947Z" fill="#8E8D8D"/>
<path d="M61.0116 63.2518L60.7086 63.2013L60.7086 63.2013L61.0116 63.2518ZM61.9937 58.3947L62.2269 58.173L61.8186 57.712L61.6907 58.3442L61.9937 58.3947ZM50.796 66.5777L51.0256 66.352L50.796 66.5777ZM47.7104 63.2205L47.9399 62.9948L47.5299 62.5487L47.4071 63.1716L47.7104 63.2205ZM46.5769 67.4528L46.8449 67.5992L46.8586 67.5741L46.868 67.5471L46.5769 67.4528ZM46.533 67.5331L46.265 67.3867L46.2522 67.4102L46.2432 67.4353L46.533 67.5331ZM46.2297 68.3582L45.9423 68.2533L45.9386 68.264L46.2297 68.3582ZM45.9091 76.0581L45.6099 76.1553L45.9091 76.0581ZM46.244 77.3363L46.5432 77.2391L46.244 77.3363ZM70.181 69.5587L69.8818 69.6559L70.181 69.5587ZM69.8462 68.2805L70.1454 68.1832L69.8462 68.2805ZM65.8581 61.9806L66.0628 61.7309L66.0564 61.7253L66.0496 61.7202L65.8581 61.9806ZM65.2039 61.4666L65.4011 61.2106L65.3813 61.1948L65.3591 61.1826L65.2039 61.4666ZM65.1281 61.4252L64.9283 61.6789L64.9492 61.6961L64.9729 61.7091L65.1281 61.4252ZM61.3146 63.3023L62.2967 58.4452L61.6907 58.3442L60.7086 63.2013L61.3146 63.3023ZM60.407 64.3342C60.8658 64.1851 61.2168 63.7861 61.3146 63.3023L60.7086 63.2013C60.6589 63.4471 60.4806 63.6498 60.2475 63.7255L60.407 64.3342ZM51.8237 67.1231L60.407 64.3342L60.2475 63.7255L51.6643 66.5144L51.8237 67.1231ZM50.5664 66.8035C50.8829 67.1478 51.3681 67.2711 51.8237 67.1231L51.6643 66.5144C51.4328 66.5896 51.1863 66.5269 51.0256 66.352L50.5664 66.8035ZM47.4808 63.4463L50.5664 66.8035L51.0256 66.352L47.9399 62.9948L47.4808 63.4463ZM46.868 67.5471C47.1766 66.6555 47.6394 65.1667 48.0137 63.2695L47.4071 63.1716C47.0401 65.0315 46.5867 66.4895 46.2858 67.3586L46.868 67.5471ZM46.801 67.6795L46.8449 67.5992L46.3089 67.3064L46.265 67.3867L46.801 67.6795ZM46.2297 68.3582C46.5169 68.4631 46.5169 68.4631 46.5169 68.4631C46.5169 68.4631 46.5169 68.463 46.5169 68.463C46.5169 68.463 46.5169 68.463 46.5169 68.463C46.5169 68.4629 46.517 68.4628 46.517 68.4628C46.5171 68.4626 46.5172 68.4623 46.5173 68.462C46.5175 68.4614 46.5179 68.4604 46.5184 68.4592C46.5193 68.4567 46.5207 68.4531 46.5225 68.4483C46.5261 68.4388 46.5315 68.4247 46.5385 68.4062C46.5525 68.3692 46.573 68.3145 46.5994 68.2435C46.6523 68.1015 46.7286 67.8939 46.8228 67.6309L46.2432 67.4353C46.1499 67.6956 46.0745 67.9006 46.0226 68.0403C45.9966 68.1102 45.9765 68.1637 45.9629 68.1996C45.9561 68.2176 45.9509 68.2312 45.9475 68.2402C45.9458 68.2447 45.9445 68.2481 45.9437 68.2503C45.9432 68.2514 45.9429 68.2522 45.9427 68.2527C45.9426 68.253 45.9426 68.2532 45.9425 68.2533C45.9425 68.2533 45.9425 68.2534 45.9425 68.2534C45.9425 68.2534 45.9425 68.2534 45.9425 68.2534C45.9425 68.2534 45.9425 68.2534 45.9425 68.2534C45.9425 68.2534 45.9425 68.2534 46.2297 68.3582ZM46.2083 75.9609C45.5394 73.4073 45.6916 70.8475 46.5207 68.4525L45.9386 68.264C45.0674 70.7807 44.9075 73.4742 45.6099 76.1553L46.2083 75.9609ZM46.5432 77.2391L46.2083 75.9609L45.6099 76.1553L45.9447 77.4335L46.5432 77.2391ZM61.3219 85.3168C54.8456 87.4211 48.2534 83.7675 46.5432 77.2391L45.9447 77.4335C47.7426 84.2961 54.6726 88.1378 61.4814 85.9255L61.3219 85.3168ZM69.8818 69.6559C71.6075 76.2432 67.7404 83.2314 61.3219 85.3168L61.4814 85.9255C68.2284 83.7333 72.2945 76.3869 70.4803 69.4615L69.8818 69.6559ZM69.547 68.3777L69.8818 69.6559L70.4803 69.4615L70.1454 68.1832L69.547 68.3777ZM65.6534 62.2303C67.4569 63.7775 68.8792 65.8286 69.547 68.3777L70.1454 68.1832C69.4418 65.4976 67.9448 63.3454 66.0628 61.7309L65.6534 62.2303ZM65.0068 61.7226C65.2133 61.8879 65.3778 62.0172 65.4909 62.1053C65.5475 62.1493 65.5912 62.1831 65.6209 62.2059C65.6357 62.2173 65.647 62.226 65.6547 62.2319C65.6585 62.2348 65.6614 62.2371 65.6634 62.2386C65.6644 62.2393 65.6652 62.2399 65.6657 62.2403C65.666 62.2405 65.6662 62.2407 65.6663 62.2408C65.6664 62.2408 65.6664 62.2409 65.6665 62.2409C65.6665 62.2409 65.6665 62.2409 65.6665 62.2409C65.6665 62.2409 65.6665 62.241 65.6666 62.241C65.6666 62.241 65.6666 62.241 65.8581 61.9806C66.0496 61.7202 66.0496 61.7202 66.0496 61.7202C66.0496 61.7202 66.0496 61.7202 66.0496 61.7202C66.0496 61.7202 66.0496 61.7202 66.0496 61.7202C66.0496 61.7202 66.0496 61.7202 66.0495 61.7201C66.0494 61.72 66.0493 61.7199 66.0491 61.7198C66.0486 61.7194 66.048 61.7189 66.0471 61.7183C66.0453 61.7169 66.0426 61.7148 66.039 61.7121C66.0317 61.7065 66.0208 61.6982 66.0064 61.6871C65.9776 61.6649 65.9348 61.6319 65.8792 61.5885C65.768 61.5019 65.6054 61.3741 65.4011 61.2106L65.0068 61.7226ZM64.9729 61.7091L65.0487 61.7505L65.3591 61.1826L65.2833 61.1412L64.9729 61.7091ZM61.7606 58.6165C63.0464 60.0682 64.2119 61.091 64.9283 61.6789L65.328 61.1714C64.6286 60.5973 63.487 59.5957 62.2269 58.173L61.7606 58.6165Z" fill="#606160"/>
<path fill-rule="evenodd" clip-rule="evenodd" d="M47.1689 64.3252C47.2012 64.3732 47.2376 64.4195 47.2782 64.4637L50.4296 67.8936C50.7279 68.2182 51.1853 68.3345 51.6148 68.195L61.1979 65.0812C61.6304 64.9407 61.9613 64.5645 62.0534 64.1084L63.0166 59.3416C63.0284 59.2831 63.0361 59.2253 63.0399 59.1684L62.5386 59.3313L61.589 64.0311C61.5337 64.3048 61.3352 64.5305 61.0757 64.6148L51.4926 67.7286C51.2349 67.8123 50.9605 67.7425 50.7815 67.5477L47.6708 64.1621L47.1689 64.3252Z" fill="#606160"/>
<mask id="path-18-outside-1_256_1819" maskUnits="userSpaceOnUse" x="45.5482" y="38.9175" width="8.87555" height="7.30892" fill="black">
<rect fill="white" x="45.5482" y="38.9175" width="8.87555" height="7.30892"/>
<path fill-rule="evenodd" clip-rule="evenodd" d="M49.6444 41.3102C51.5535 39.731 52.8497 42.0001 53.2591 43.3321C52.2379 41.3733 50.4239 41.168 49.6445 41.3102C49.6445 41.3102 49.6445 41.3102 49.6445 41.3102C48.9187 41.657 47.4883 42.9164 47.5731 45.1796C47.2752 43.8115 47.2723 41.1222 49.6444 41.3102Z"/>
</mask>
<path fill-rule="evenodd" clip-rule="evenodd" d="M49.6444 41.3102C51.5535 39.731 52.8497 42.0001 53.2591 43.3321C52.2379 41.3733 50.4239 41.168 49.6445 41.3102C49.6445 41.3102 49.6445 41.3102 49.6445 41.3102C48.9187 41.657 47.4883 42.9164 47.5731 45.1796C47.2752 43.8115 47.2723 41.1222 49.6444 41.3102Z" fill="#616160"/>
<path d="M53.2591 43.3321L53.0909 43.4313C53.1365 43.5187 53.2409 43.5525 53.3317 43.5092C53.4225 43.4659 53.4696 43.3599 53.4403 43.2647L53.2591 43.3321ZM49.6444 41.3102L49.6207 41.5055C49.6697 41.5094 49.7192 41.4933 49.7586 41.4607L49.6444 41.3102ZM49.6445 41.3102L49.6203 41.1174C49.5255 41.1347 49.4546 41.2214 49.4546 41.3199C49.4547 41.4183 49.5257 41.4978 49.6205 41.5055L49.6445 41.3102ZM49.6445 41.3102L49.7173 41.4873C49.7967 41.4493 49.8441 41.3621 49.8327 41.2748C49.8212 41.1874 49.7539 41.1219 49.6685 41.115L49.6445 41.3102ZM47.5731 45.1796L47.3878 45.2314C47.4091 45.3291 47.5 45.3903 47.5974 45.3724C47.6948 45.3546 47.7666 45.2635 47.7628 45.1626L47.5731 45.1796ZM53.4403 43.2647C53.2308 42.5832 52.791 41.6455 52.1409 41.0774C51.813 40.7909 51.4214 40.5898 50.9716 40.5768C50.5193 40.5637 50.0357 40.7416 49.5301 41.1597L49.7586 41.4607C50.2077 41.0892 50.602 40.9585 50.9425 40.9684C51.2854 40.9783 51.6014 41.1316 51.8874 41.3815C52.465 41.8862 52.878 42.749 53.0779 43.3995L53.4403 43.2647ZM49.6686 41.503C50.3885 41.3717 52.1147 41.5589 53.0909 43.4313L53.4273 43.2329C52.361 41.1877 50.4593 40.9643 49.6203 41.1174L49.6686 41.503ZM49.6205 41.5055L49.6205 41.5055L49.6685 41.115L49.6684 41.115L49.6205 41.5055ZM49.5718 41.1332C48.7905 41.5065 47.2949 42.8337 47.3834 45.1967L47.7628 45.1626C47.6818 42.9992 49.0469 41.8076 49.7173 41.4873L49.5718 41.1332ZM47.7584 45.1279C47.6129 44.4598 47.5445 43.4851 47.7877 42.7136C47.9082 42.3317 48.1006 42.0132 48.3849 41.7994C48.6673 41.5872 49.0628 41.4613 49.6207 41.5055L49.668 41.1149C49.0399 41.0651 48.5463 41.2049 48.1713 41.4867C47.7984 41.7671 47.5653 42.1712 47.4272 42.6091C47.1534 43.4773 47.2353 44.5313 47.3878 45.2314L47.7584 45.1279Z" fill="#606160" mask="url(#path-18-outside-1_256_1819)"/>
<path d="M50.4907 46.8439C50.1701 46.7864 49.8013 46.6207 49.3823 46.3023C49.4528 46.3093 49.5286 46.3138 49.6087 46.3156C49.8722 46.3212 50.1883 46.2963 50.5269 46.2233C51.1228 46.0948 51.7926 45.8163 52.3653 45.2887C52.2135 45.7923 51.9186 46.3486 51.4711 46.6472C51.2047 46.825 50.8808 46.914 50.4907 46.8439Z" fill="#616160" stroke="#616160" stroke-width="0.181343"/>
</g>
<circle r="26.2819" transform="matrix(0.951057 -0.309017 0.25342 0.967356 51.9839 49.8931)" stroke="#656565" stroke-width="0.544702"/>
<path d="M31.568 50.7118L33.114 56.6134L37.867 55.069L36.321 49.1675L34.7151 49.6893L35.1637 51.4018L33.6355 51.8983L33.1868 50.1858L31.568 50.7118ZM33.9875 53.242L35.5157 52.7454L35.9022 54.2208L34.374 54.7173L33.9875 53.242ZM39.5399 47.2925L41.4621 54.6299L43.0939 54.0997L41.1718 46.7623L39.5399 47.2925ZM38.8788 50.7235L39.2515 52.1462L41.1553 51.5276L40.7826 50.105L38.8788 50.7235ZM37.0567 48.3281L38.9099 55.402L40.5158 54.8802L38.6627 47.8063L37.0567 48.3281ZM35.002 57.3293L35.3678 58.7256L41.8952 56.6047L42.6544 59.5028L44.3639 58.9473L43.2389 54.6529L35.002 57.3293ZM63.5723 46.2594L64.2729 48.9336L65.9953 48.3739L65.2948 45.6998L63.5723 46.2594ZM67.1912 38.2938L69.6104 47.5281L71.3328 46.9684L68.9137 37.7341L67.1912 38.2938ZM63.0499 51.132L63.4157 52.5283L72.3131 49.6374L71.9473 48.241L63.0499 51.132ZM62.4667 48.9057L63.1466 51.5008L64.8691 50.9412L64.1892 48.3461L62.4667 48.9057ZM60.7575 47.7458C62.9203 47.043 65.7135 46.064 68.1509 44.8003L67.7195 43.5826C65.2933 44.7282 62.3732 45.7056 60.1845 46.4168L60.7575 47.7458ZM66.7814 46.1173L67.0955 47.316L69.7375 46.4576L69.4234 45.2588L66.7814 46.1173ZM62.7429 40.1965C60.9815 40.7688 59.9824 42.0512 60.3206 43.3422C60.6623 44.6463 62.1204 45.1159 63.8817 44.5436C65.6301 43.9756 66.6327 42.7064 66.291 41.4022C65.9528 40.1113 64.4913 39.6285 62.7429 40.1965ZM63.0776 41.4743C63.8676 41.2176 64.5039 41.3397 64.6592 41.9325C64.8145 42.5252 64.337 43.0092 63.547 43.2659C62.744 43.5268 62.1077 43.4047 61.9524 42.8119C61.7971 42.2192 62.2747 41.7352 63.0776 41.4743Z" fill="#606160"/>
<circle r="24.2392" transform="matrix(0.951057 -0.309017 0.25342 0.967356 51.9838 49.893)" stroke="#606160" stroke-width="0.544702"/>
</g>
<circle cx="102" cy="59" r="40.5795" fill="url(#paint1_linear_256_1819)" stroke="#656565" stroke-width="0.841026"/>
<circle cx="102" cy="59.0001" r="37.4256" stroke="#606160" stroke-width="0.841026"/>
<path d="M80.88 48.0714V75.2924H85.4792V43.2082H80.88L76.3249 46.531V51.4163L80.88 48.0714ZM102.353 66.05C102.265 69.2922 100.761 70.9279 97.8419 70.9573C94.9079 70.9279 93.4115 69.2922 93.3528 66.05V52.4505C93.4115 49.2377 94.9079 47.602 97.8419 47.5433C100.761 47.602 102.265 49.2377 102.353 52.4505V66.05ZM88.7536 66.3141C88.783 69.2628 89.7292 71.5367 91.5923 73.1358C93.3381 74.7202 95.4213 75.5271 97.8419 75.5564C100.336 75.5271 102.456 74.7202 104.202 73.1358C105.977 71.5367 106.894 69.2628 106.952 66.3141V52.1645C106.894 49.2011 105.977 46.9198 104.202 45.3207C102.456 43.7363 100.336 42.9441 97.8419 42.9441C95.4213 42.9441 93.3381 43.7363 91.5923 45.3207C89.7292 46.9198 88.783 49.2011 88.7536 52.1645V66.3141ZM122.429 66.05C122.341 69.2922 120.837 70.9279 117.918 70.9573C114.984 70.9279 113.488 69.2922 113.429 66.05V52.4505C113.488 49.2377 114.984 47.602 117.918 47.5433C120.837 47.602 122.341 49.2377 122.429 52.4505V66.05ZM108.83 66.3141C108.859 69.2628 109.805 71.5367 111.668 73.1358C113.414 74.7202 115.497 75.5271 117.918 75.5564C120.412 75.5271 122.532 74.7202 124.278 73.1358C126.053 71.5367 126.97 69.2628 127.028 66.3141V52.1645C126.97 49.2011 126.053 46.9198 124.278 45.3207C122.532 43.7363 120.412 42.9441 117.918 42.9441C115.497 42.9441 113.414 43.7363 111.668 45.3207C109.805 46.9198 108.859 49.2011 108.83 52.1645V66.3141Z" fill="#606160"/>
<path d="M87.3622 86.421L87.2245 86.9529L87.7409 87.0866C89.1285 87.4459 89.9344 87.6052 90.9073 87.6597L90.964 87.1233C90.0219 87.0768 89.2431 86.908 87.8787 86.5548L87.3622 86.421ZM88.0947 83.5921L87.3183 86.5906L87.9427 86.7523L88.5854 84.2702L91.1291 84.9288L91.2629 84.4124L88.0947 83.5921ZM87.7503 87.8129L87.6146 88.3371L91.623 89.3749L91.126 91.2943L91.7658 91.46L92.3985 89.0164L87.7503 87.8129ZM92.9303 84.3259L91.8505 88.4962L92.4903 88.6618L93.5701 84.4916L92.9303 84.3259ZM90.513 85.6247L90.3793 86.1412L92.5068 86.6921L92.6405 86.1756L90.513 85.6247Z" fill="#606160"/>
<path d="M100.267 85.2482L99.6601 92.4207L100.319 92.4764L100.926 85.3039L100.267 85.2482ZM94.7249 90.5885C96.0492 90.7086 97.773 90.8305 99.3979 90.7044L99.3919 90.2084C97.8273 90.2837 96.0421 90.1326 94.6846 90.0257L94.7249 90.5885ZM95.1954 85.7857L95.1497 86.3252L99.5056 86.694L99.5513 86.1545L95.1954 85.7857ZM97.2908 86.8981C96.2832 86.8128 95.5393 87.2932 95.4708 88.1025C95.4022 88.9118 96.0548 89.5104 97.0624 89.5957C98.078 89.6817 98.8298 89.2019 98.8983 88.3926C98.9669 87.5833 98.3064 86.984 97.2908 86.8981ZM97.2465 87.4217C97.8971 87.4768 98.3139 87.8397 98.2715 88.3396C98.2292 88.8394 97.756 89.143 97.1054 89.0879C96.4627 89.0335 96.0473 88.6547 96.0896 88.1549C96.1319 87.655 96.6038 87.3673 97.2465 87.4217ZM97.1193 85.0536L97.0152 86.2834L97.6737 86.3391L97.7779 85.1093L97.1193 85.0536Z" fill="#606160"/>
<path d="M102.841 89.1366L102.886 89.6761L109.368 89.1273L109.323 88.5878L102.841 89.1366ZM103.911 91.7709L103.956 92.3105L108.883 91.8934L108.838 91.3538L103.911 91.7709ZM103.78 90.2317L103.925 91.9376L104.583 91.8818L104.439 90.176L103.78 90.2317ZM105.787 85.3311C104.248 85.4614 103.309 86.0842 103.385 86.9808C103.46 87.8694 104.49 88.3257 106.029 88.1954C107.561 88.0657 108.507 87.4423 108.431 86.5536C108.356 85.6571 107.318 85.2015 105.787 85.3311ZM105.832 85.8706C106.959 85.7753 107.709 86.0474 107.757 86.6107C107.805 87.174 107.111 87.5684 105.984 87.6638C104.858 87.7592 104.107 87.487 104.06 86.9237C104.012 86.3604 104.706 85.966 105.832 85.8706Z" fill="#606160"/>
<path d="M115.217 83.3045L116.359 87.7137L116.968 87.556L115.826 83.1468L115.217 83.3045ZM114.573 85.4865L114.711 86.0184L116.029 85.6771L115.891 85.1452L114.573 85.4865ZM113.765 83.8285L114.807 87.8523L115.409 87.6966L114.367 83.6728L113.765 83.8285ZM110.137 85.5082L110.269 86.017L113.799 85.1028L113.668 84.5941L110.137 85.5082ZM112.134 85.9125C111.255 86.14 110.77 86.7756 110.955 87.4925C111.143 88.2171 111.874 88.5296 112.752 88.3021C113.623 88.0766 114.111 87.4487 113.923 86.7241C113.737 86.0072 113.005 85.687 112.134 85.9125ZM112.257 86.3904C112.797 86.2507 113.241 86.4401 113.353 86.8718C113.466 87.3112 113.168 87.6845 112.629 87.8242C112.081 87.9659 111.639 87.7842 111.526 87.3448C111.414 86.9131 111.71 86.5321 112.257 86.3904ZM111.392 84.3524L111.668 85.4162L112.292 85.2545L112.017 84.1908L111.392 84.3524ZM114.718 88.2702C113.254 88.6494 112.502 89.3046 112.704 90.0832C112.903 90.854 113.88 91.0698 115.345 90.6906C116.794 90.3154 117.551 89.6505 117.352 88.8796C117.15 88.1011 116.167 87.8949 114.718 88.2702ZM114.846 88.7635C115.902 88.4901 116.6 88.5808 116.72 89.0433C116.839 89.5058 116.275 89.9315 115.219 90.205C114.148 90.4824 113.455 90.382 113.336 89.9195C113.216 89.457 113.774 89.0409 114.846 88.7635Z" fill="#606160"/>
<path d="M91.458 32.5517L95.0262 31.8329L94.8454 30.9355L92.4537 31.4173L93.9589 28.4869C94.1462 28.1155 94.1983 27.7237 94.1153 27.3115C94.0058 26.7974 93.747 26.4072 93.3388 26.1409C92.9359 25.8706 92.4648 25.7868 91.9254 25.8895C91.4457 25.9921 91.0747 26.2426 90.8124 26.641C90.5547 27.0474 90.4668 27.5133 90.5489 28.0389L91.442 27.859C91.4158 27.5664 91.4713 27.3244 91.6085 27.1329C91.7399 26.9426 91.9288 26.8227 92.1749 26.7731C92.4537 26.7229 92.6866 26.7698 92.8735 26.9138C93.0547 27.059 93.1689 27.249 93.2162 27.4837C93.234 27.5725 93.2416 27.6692 93.2389 27.774C93.2259 27.8869 93.1846 28.0144 93.1149 28.1565L91.2876 31.7058L91.458 32.5517Z" fill="#606160"/>
<path d="M99.8174 29.5036C99.8427 30.1487 99.5656 30.4933 98.9862 30.5377C98.403 30.5705 98.0843 30.2654 98.0299 29.6222L97.8507 26.9213C97.82 26.2824 98.0956 25.9378 98.6776 25.8875C99.2581 25.8607 99.5784 26.1657 99.6382 26.8027L99.8174 29.5036ZM97.12 29.7353C97.1647 30.3205 97.3826 30.7597 97.7737 31.0527C98.1413 31.3444 98.5656 31.4772 99.0468 31.4511C99.5417 31.4124 99.9521 31.2242 100.278 30.8865C100.609 30.5455 100.762 30.0818 100.734 29.4954L100.548 26.6852C100.497 26.0975 100.285 25.6565 99.9113 25.3623C99.5437 25.0706 99.1123 24.9412 98.6169 24.9741C98.1362 25.006 97.7329 25.1908 97.4071 25.5285C97.0581 25.8706 96.9002 26.3361 96.9335 26.9251L97.12 29.7353Z" fill="#606160"/>
<path d="M102.999 31.2579L106.631 31.4989L106.692 30.5855L104.257 30.424L106.478 27.9902C106.756 27.6809 106.909 27.3164 106.936 26.8969C106.965 26.372 106.818 25.9277 106.494 25.5638C106.176 25.1973 105.743 24.993 105.196 24.9509C104.706 24.9242 104.282 25.0687 103.925 25.3845C103.569 25.7092 103.363 26.1359 103.304 26.6646L104.213 26.7249C104.264 26.4357 104.381 26.2167 104.564 26.0678C104.741 25.9186 104.954 25.8523 105.205 25.8689C105.487 25.8935 105.7 25.9998 105.842 26.1878C105.979 26.3754 106.039 26.5886 106.024 26.8275C106.018 26.9178 106 27.0132 105.969 27.1137C105.927 27.2191 105.854 27.3313 105.75 27.4502L103.056 30.397L102.999 31.2579Z" fill="#606160"/>
<path d="M110.629 29.1892L111.007 29.2654C111.284 29.3213 111.496 29.4519 111.642 29.6571C111.791 29.8686 111.835 30.1338 111.777 30.4527C111.709 30.7636 111.566 30.985 111.348 31.117C111.132 31.261 110.892 31.3065 110.628 31.2534C110.382 31.2038 110.198 31.0968 110.076 30.9322C109.956 30.774 109.877 30.5823 109.839 30.3572L108.942 30.1764C108.934 30.717 109.067 31.1579 109.341 31.499C109.615 31.8401 109.965 32.0536 110.392 32.1396C110.945 32.2451 111.433 32.1602 111.855 31.8848C112.281 31.6191 112.556 31.1934 112.68 30.6077C112.733 30.3444 112.728 30.0812 112.664 29.8183C112.596 29.5542 112.447 29.3097 112.218 29.0849C112.511 28.9622 112.73 28.7993 112.875 28.5962C113.006 28.3903 113.095 28.167 113.144 27.9266C113.234 27.4503 113.154 27.0052 112.903 26.5914C112.641 26.1661 112.225 25.8932 111.657 25.7727C111.206 25.6879 110.787 25.7704 110.4 26.0201C110.007 26.2715 109.741 26.6244 109.602 27.079L110.499 27.2597C110.608 27.0136 110.758 26.8458 110.949 26.7561C111.131 26.6648 111.318 26.6384 111.51 26.677C111.775 26.7364 111.976 26.8647 112.112 27.0618C112.247 27.2648 112.29 27.4985 112.243 27.763C112.191 28.0235 112.063 28.2183 111.862 28.3474C111.659 28.4823 111.404 28.5189 111.098 28.4572L110.789 28.3949L110.629 29.1892Z" fill="#606160"/>
<defs>
<filter id="filter0_f_256_1819" x="23.3426" y="20.4205" width="57.2829" height="58.9452" filterUnits="userSpaceOnUse" color-interpolation-filters="sRGB">
<feFlood flood-opacity="0" result="BackgroundImageFix"/>
<feBlend mode="normal" in="SourceGraphic" in2="BackgroundImageFix" result="shape"/>
<feGaussianBlur stdDeviation="1.24961" result="effect1_foregroundBlur_256_1819"/>
</filter>
<linearGradient id="paint0_linear_256_1819" x1="26.5542" y1="0" x2="26.5542" y2="53.1084" gradientUnits="userSpaceOnUse">
<stop stop-color="white"/>
<stop offset="1" stop-color="#DCDBDB"/>
</linearGradient>
<linearGradient id="paint1_linear_256_1819" x1="102" y1="18" x2="102" y2="100" gradientUnits="userSpaceOnUse">
<stop stop-color="white"/>
<stop offset="1" stop-color="#DCDBDB"/>
</linearGradient>
</defs>
</svg>
