<svg width="169" height="117" viewBox="0 0 169 117" fill="none" xmlns="http://www.w3.org/2000/svg">
<rect width="169" height="117" rx="11" fill="#ECECEC"/>
<path opacity="0.1" d="M117.741 39.389L120.377 40.458C134.313 46.1098 141.118 62.0391 135.575 76.0321C130.032 90.0252 114.232 96.8014 100.296 91.1496L97.6605 90.0806C92.2754 87.8966 87.9534 84.1742 85.011 79.6298C85.011 79.6298 84.6797 79.0251 84.0123 77.9754C83.9769 77.917 83.9465 77.8459 83.8985 77.7823C80.8777 73.1032 71.7251 60.6607 55.8521 54.2085L38.3599 47.1143C33.4413 45.1195 31.0413 39.5016 32.9977 34.5628L33.0829 34.3476C35.0393 29.4088 40.6098 27.0235 45.5283 29.0182L63.0205 36.1125C78.9035 42.5393 94.0156 39.9377 99.3941 38.665C99.4722 38.6526 99.5427 38.6224 99.6082 38.6049C100.807 38.3122 101.46 38.1064 101.46 38.1064C106.69 36.8764 112.356 37.2049 117.741 39.389V39.389Z" fill="white" stroke="#231815" stroke-width="2.18738" stroke-miterlimit="10"/>
<path opacity="0.1" d="M121.504 39.9051L123.979 41.3139C137.064 48.7624 141.751 65.4558 134.446 78.5946C127.14 91.7333 110.6 96.3592 97.5152 88.9107L95.0403 87.5019C89.984 84.6236 86.1806 80.361 83.8512 75.466C83.8512 75.466 83.6009 74.8226 83.075 73.6936C83.0475 73.631 83.0266 73.5565 82.9872 73.4871C80.5975 68.4482 73.1329 54.9008 58.2309 46.4023L41.8066 37.053C37.1883 34.4241 35.5355 28.5367 38.1138 23.8995L38.2262 23.6973C40.8045 19.0601 46.6355 17.4329 51.2537 20.0617L67.6781 29.4111C82.5933 37.8858 97.9118 37.3076 103.409 36.758C103.488 36.756 103.562 36.7354 103.629 36.7267C104.855 36.5954 105.529 36.4778 105.529 36.4778C110.873 35.9508 116.448 37.0268 121.504 39.9051V39.9051Z" fill="white" stroke="#231815" stroke-width="2.18738" stroke-miterlimit="10"/>
<path opacity="0.1" d="M113.335 38.2256L116.141 38.6642C130.979 40.9836 141.166 54.9449 138.891 69.8435C136.616 84.742 122.738 94.9554 107.901 92.636L105.094 92.1973C99.3607 91.301 94.3193 88.6631 90.4381 84.909C90.4381 84.909 89.9803 84.3957 89.0957 83.5257C89.0482 83.4769 89.0027 83.4146 88.9418 83.3636C84.9541 79.4962 73.2596 69.4682 56.3562 66.812L37.7321 63.9007C32.4953 63.0821 28.9027 58.1583 29.7056 52.9L29.7406 52.6708C30.5434 47.4125 35.4371 43.8152 40.6739 44.6338L59.298 47.5451C76.2054 50.1742 90.3456 44.1847 95.3008 41.7152C95.3741 41.6852 95.4361 41.6397 95.4959 41.6076C96.5987 41.0484 97.1883 40.6988 97.1883 40.6988C102.008 38.3048 107.601 37.3293 113.335 38.2256V38.2256Z" fill="white" stroke="#231815" stroke-width="2.18738" stroke-miterlimit="10"/>
<path opacity="0.1" d="M113.335 38.2256L116.141 38.6642C130.979 40.9836 141.166 54.9449 138.891 69.8435C136.616 84.742 122.738 94.9554 107.901 92.636L105.094 92.1973C99.3607 91.301 94.3193 88.6631 90.4381 84.909C90.4381 84.909 89.9803 84.3957 89.0957 83.5257C89.0482 83.4769 89.0027 83.4146 88.9418 83.3636C84.9541 79.4962 73.2596 69.4682 56.3562 66.812L37.7321 63.9007C32.4953 63.0821 28.9027 58.1583 29.7056 52.9L29.7406 52.6708C30.5434 47.4125 35.4371 43.8152 40.6739 44.6338L59.298 47.5451C76.2054 50.1742 90.3456 44.1847 95.3008 41.7152C95.3741 41.6852 95.4361 41.6397 95.4959 41.6076C96.5987 41.0484 97.1883 40.6988 97.1883 40.6988C102.008 38.3048 107.601 37.3293 113.335 38.2256V38.2256Z" fill="white" stroke="#231815" stroke-width="2.18738" stroke-miterlimit="10"/>
<path d="M109.25 38.6319L112.089 38.6319C127.103 38.6319 139.277 50.8558 139.277 65.9311C139.277 81.0063 127.103 93.2439 112.089 93.2439L109.25 93.2439C103.448 93.2439 98.0677 91.4158 93.6656 88.3052C93.6656 88.3052 93.1357 87.8686 92.1303 87.1456C92.0759 87.1046 92.0216 87.0501 91.9536 87.0091C87.4292 83.8031 74.3586 75.6993 57.2526 75.6856L38.4076 75.6856C33.1087 75.6856 28.8152 71.3745 28.8152 66.0539L28.8152 65.8219C28.8152 60.5012 33.1087 56.1901 38.4076 56.1901L57.2526 56.1901C74.3586 56.1765 87.4292 48.0727 91.9536 44.8666C92.0216 44.8257 92.0759 44.7711 92.1303 44.7302C93.1357 44.0071 93.6656 43.5706 93.6656 43.5706C98.0677 40.46 103.448 38.6319 109.25 38.6319V38.6319Z" fill="white" stroke="#231815" stroke-width="2.18738" stroke-miterlimit="10"/>
<path d="M36.8152 60.8922L39.3152 63.4218" stroke="black" stroke-linecap="round"/>
<path d="M36.8152 67.9751L39.3152 70.5047" stroke="black" stroke-linecap="round"/>
<path d="M39.3152 60.8922L36.8152 63.4218" stroke="black" stroke-linecap="round"/>
<path d="M39.3152 67.9751L36.8152 70.5047" stroke="black" stroke-linecap="round"/>
<path d="M41.127 67.4989C40.9507 65.9919 41.0162 64.4569 41.3203 62.9709C41.7738 61.2479 43.8285 59.9922 45.396 60.0607L45.5098 60.0657C47.0773 60.1342 49.0299 61.5651 49.3223 63.3207C49.4986 64.8278 49.433 66.3627 49.1289 67.8487C48.6754 69.5717 46.6207 70.8274 45.0532 70.7589C45.0153 70.7572 44.9773 70.7556 44.9394 70.7539C43.3719 70.6854 41.4187 69.2673 41.127 67.4989V67.4989Z" fill="#FBC83B"/>
<path d="M41.127 67.4989C40.9507 65.9919 41.0162 64.4569 41.3203 62.9709C41.7738 61.2479 43.8285 59.9922 45.396 60.0607L45.5098 60.0657C47.0773 60.1342 49.0299 61.5651 49.3223 63.3207C49.4986 64.8278 49.433 66.3627 49.1289 67.8487C48.6754 69.5717 46.6207 70.8274 45.0532 70.7589C45.0153 70.7572 44.9773 70.7556 44.9394 70.7539C43.3719 70.6854 41.4187 69.2673 41.127 67.4989V67.4989Z" stroke="#1E1912" stroke-width="1.42593" stroke-miterlimit="10"/>
<path d="M45.9617 61.9436C45.9617 61.9436 42.7571 64.9175 45.6678 68.8251" stroke="#1E1912" stroke-width="1.52779" stroke-linecap="round" stroke-linejoin="round"/>
</svg>
