<svg width="169" height="117" viewBox="0 0 169 117" fill="none" xmlns="http://www.w3.org/2000/svg">
<rect width="169" height="117" rx="11" fill="#D9D9D9"/>
<mask id="mask0_254_1801" style="mask-type:alpha" maskUnits="userSpaceOnUse" x="0" y="0" width="169" height="117">
<rect width="169" height="117" rx="11" fill="#ECECEC"/>
</mask>
<g mask="url(#mask0_254_1801)">
<rect x="-8.78849" y="69.3076" width="190.577" height="51.2961" fill="#F3F3F3" stroke="black" stroke-width="0.792655"/>
<g filter="url(#filter0_f_254_1801)">
<path d="M89.9004 83.9438C89.1188 85.5282 86.6541 85.9508 84.2669 86.0001C81.8867 85.9508 79.4149 85.5282 78.6333 83.9438C77.8234 82.4016 80.2529 79.6552 84.2669 79.6482C88.2808 79.6552 90.7032 82.4016 89.9004 83.9438Z" fill="#F6CE55"/>
<path d="M89.9004 83.9438C89.1188 85.5282 86.6541 85.9508 84.2669 86.0001C81.8867 85.9508 79.4149 85.5282 78.6333 83.9438C77.8234 82.4016 80.2529 79.6552 84.2669 79.6482C88.2808 79.6552 90.7032 82.4016 89.9004 83.9438Z" stroke="#1E1912" stroke-width="0.79359" stroke-miterlimit="10"/>
<path d="M83.7106 53.3535C83.7106 53.3535 85.9077 57.5646 88.5695 60.0856C89.4709 60.9377 93.6398 62.4377 92.3722 66.0079C91.1046 69.5782 86.2738 69.2684 86.2738 69.2684C86.2738 69.2684 78.5347 68.022 77.3235 60.3885" fill="white"/>
<path d="M83.7106 53.3535C83.7106 53.3535 85.9077 57.5646 88.5695 60.0856C89.4709 60.9377 93.6398 62.4377 92.3722 66.0079C91.1046 69.5782 86.2738 69.2684 86.2738 69.2684C86.2738 69.2684 78.5347 68.022 77.3235 60.3885" stroke="black" stroke-width="0.850275" stroke-linecap="round" stroke-linejoin="round"/>
<path d="M75.774 25.6785L74.5628 22.3477L73.7529 23.8335" stroke="#1E1912" stroke-width="0.56685" stroke-linecap="round" stroke-linejoin="round"/>
<path d="M76.1685 20.9954C77.7248 22.1996 76.915 23.9319 74.9925 23.5164C73.7884 25.0727 72.056 24.2629 72.4715 22.3404C70.9152 21.1363 71.7251 19.4039 73.6475 19.8194C74.8517 18.2631 76.584 19.073 76.1685 20.9954Z" fill="#16701B"/>
<path d="M73.6895 21.3546L72.5627 20.8053" stroke="white" stroke-width="0.283425" stroke-linecap="round" stroke-linejoin="round"/>
<path d="M73.9712 22.0942L73.429 23.221" stroke="white" stroke-width="0.283425" stroke-linecap="round" stroke-linejoin="round"/>
<path d="M74.6899 21.749L75.8167 22.2983" stroke="white" stroke-width="0.283425" stroke-linecap="round" stroke-linejoin="round"/>
<path d="M74.436 21.0658L74.9853 19.932" stroke="white" stroke-width="0.283425" stroke-linecap="round" stroke-linejoin="round"/>
<path d="M90.189 67.4162V68.888C90.189 76.6693 83.8794 82.979 76.098 82.979C68.3167 82.979 62 76.6693 62 68.888V67.4162C62 64.4093 62.9436 61.6206 64.5492 59.339C64.5492 59.339 64.7745 59.0644 65.1478 58.5433C65.1689 58.5151 65.1971 58.487 65.2182 58.4517C66.873 56.1068 71.056 49.3324 71.063 40.4665V30.6993C71.063 27.9529 73.2883 25.7277 76.0347 25.7277H76.1544C78.9008 25.7277 81.126 27.9529 81.126 30.6993V40.4665C81.1331 49.3324 85.316 56.1068 86.9709 58.4517C86.992 58.487 87.0202 58.5151 87.0413 58.5433C87.4145 59.0644 87.6398 59.339 87.6398 59.339C89.2454 61.6206 90.189 64.4093 90.189 67.4162Z" fill="white" stroke="#231815" stroke-width="1.1337" stroke-miterlimit="10"/>
<path d="M64.5491 59.339C64.7322 59.0643 64.9364 58.7967 65.1476 58.5432C64.7744 59.0643 64.5491 59.339 64.5491 59.339Z" fill="white" stroke="#231815" stroke-width="1.1337" stroke-miterlimit="10"/>
<path d="M87.6401 59.339C87.6401 59.339 87.4147 59.0643 87.0415 58.5432C87.2528 58.7967 87.457 59.0643 87.6401 59.339Z" fill="white" stroke="#231815" stroke-width="1.1337" stroke-miterlimit="10"/>
<path d="M76.8656 30.8263C77.1223 30.8263 77.3304 30.5267 77.3304 30.1573C77.3304 29.7878 77.1223 29.4883 76.8656 29.4883C76.609 29.4883 76.4009 29.7878 76.4009 30.1573C76.4009 30.5267 76.609 30.8263 76.8656 30.8263Z" fill="#1E1912"/>
<path d="M79.0488 30.8263C79.3054 30.8263 79.5135 30.5267 79.5135 30.1573C79.5135 29.7878 79.3054 29.4883 79.0488 29.4883C78.7921 29.4883 78.584 29.7878 78.584 30.1573C78.584 30.5267 78.7921 30.8263 79.0488 30.8263Z" fill="#1E1912"/>
<path d="M80.295 36.2767C79.471 36.4105 78.626 36.4105 77.8021 36.2767C76.8444 36.0654 76.105 34.9528 76.105 34.0796V34.0162C76.105 33.143 76.8444 32.0233 77.8021 31.8191C78.626 31.6853 79.471 31.6853 80.295 31.8191C81.2527 32.0304 81.9921 33.143 81.9921 34.0162C81.9921 34.0373 81.9921 34.0584 81.9921 34.0796C81.9921 34.9528 81.2597 36.0725 80.295 36.2767Z" fill="#FBC83B"/>
<path d="M80.295 36.2767C79.471 36.4105 78.626 36.4105 77.8021 36.2767C76.8444 36.0654 76.105 34.9528 76.105 34.0796V34.0162C76.105 33.143 76.8444 32.0233 77.8021 31.8191C78.626 31.6853 79.471 31.6853 80.295 31.8191C81.2527 32.0304 81.9921 33.143 81.9921 34.0162C81.9921 34.0373 81.9921 34.0584 81.9921 34.0796C81.9921 34.9528 81.2597 36.0725 80.295 36.2767V36.2767Z" stroke="#1E1912" stroke-width="0.79359" stroke-miterlimit="10"/>
<path d="M77.1262 33.7203C77.1262 33.7203 78.8374 35.4315 80.9148 33.7203" stroke="#1E1912" stroke-width="0.850275" stroke-linecap="round" stroke-linejoin="round"/>
<path d="M81.5415 83.9438C80.7599 85.5282 78.2952 85.9508 75.908 86.0001C73.5278 85.9508 71.056 85.5282 70.2744 83.9438C69.4646 82.4016 71.894 79.6552 75.908 79.6482C79.9219 79.6552 82.3443 82.4016 81.5415 83.9438Z" fill="#F6CE55"/>
<path d="M81.5415 83.9438C80.7599 85.5282 78.2952 85.9508 75.908 86.0001C73.5278 85.9508 71.056 85.5282 70.2744 83.9438C69.4646 82.4016 71.894 79.6552 75.908 79.6482C79.9219 79.6552 82.3443 82.4016 81.5415 83.9438Z" stroke="#1E1912" stroke-width="0.79359" stroke-miterlimit="10"/>
<path d="M77.9571 56.0012C77.9571 56.0012 74.2319 61.501 71.57 64.022C70.6687 64.8741 66.3942 65.529 67.7674 69.9443C68.8941 73.5569 73.8657 73.2048 73.8657 73.2048C73.8657 73.2048 81.6049 71.9583 82.8161 64.3248" stroke="black" stroke-width="0.850275" stroke-linecap="round" stroke-linejoin="round"/>
</g>
<path d="M132.172 57.5121H131.052L129.448 58.5516V59.618L130.962 58.6502H130.998V64H132.172V57.5121ZM133.758 64H134.905V61.0428C134.905 60.4379 135.309 60.0302 135.802 60.0302C136.29 60.0302 136.621 60.3573 136.626 60.8636V64H137.737V60.9622C137.737 60.4111 138.064 60.0302 138.624 60.0302C139.09 60.0302 139.458 60.3035 139.458 60.9084V64H140.596V60.7292C140.6 59.6449 139.973 59.0714 139.081 59.0714C138.373 59.0714 137.831 59.4208 137.621 59.9585H137.567C137.383 59.4074 136.908 59.0714 136.25 59.0714C135.604 59.0714 135.116 59.4029 134.914 59.9585H134.852V59.1341H133.758V64Z" fill="#040404"/>
<path d="M135 70L118 120" stroke="#C2C2C2" stroke-width="0.6" stroke-dasharray="1.2 1.2"/>
<path d="M58.0091 77.7267C58.0091 77.7267 61.9569 85.2933 66.7398 89.8231C68.3594 91.3541 75.85 94.0492 73.5725 100.464C71.2949 106.88 62.6149 106.323 62.6149 106.323C62.6149 106.323 48.7091 104.083 46.5327 90.3672" fill="white"/>
<path d="M58.0091 77.7267C58.0091 77.7267 61.9569 85.2933 66.7398 89.8231C68.3594 91.3541 75.85 94.0492 73.5725 100.464C71.2949 106.88 62.6149 106.323 62.6149 106.323C62.6149 106.323 48.7091 104.083 46.5327 90.3672" stroke="black" stroke-width="2.04" stroke-linecap="round" stroke-linejoin="round"/>
<path d="M43.7494 27.9998L41.573 22.0149L40.1179 24.6847" stroke="#1E1912" stroke-width="1.01852" stroke-linecap="round" stroke-linejoin="round"/>
<path d="M44.4582 19.5854C47.2546 21.7491 45.7995 24.8618 42.3452 24.1152C40.1815 26.9116 37.0688 25.4565 37.8153 22.0022C35.019 19.8385 36.4741 16.7258 39.9284 17.4723C42.0921 14.676 45.2048 16.1311 44.4582 19.5854Z" fill="#16701B"/>
<path d="M40.0037 20.2307L37.9792 19.2438" stroke="white" stroke-width="0.509262" stroke-linecap="round" stroke-linejoin="round"/>
<path d="M40.5104 21.5594L39.5361 23.584" stroke="white" stroke-width="0.509262" stroke-linecap="round" stroke-linejoin="round"/>
<path d="M41.8008 20.9392L43.8253 21.9262" stroke="white" stroke-width="0.509262" stroke-linecap="round" stroke-linejoin="round"/>
<path d="M41.3452 19.7118L42.3322 17.6747" stroke="white" stroke-width="0.509262" stroke-linecap="round" stroke-linejoin="round"/>
<path d="M69.6505 102.995V105.639C69.6505 119.621 58.3133 130.958 44.3316 130.958C30.3499 130.958 19 119.621 19 105.639V102.995C19 97.5919 20.6955 92.5813 23.5804 88.4817C23.5804 88.4817 23.9853 87.9882 24.656 87.0519C24.6939 87.0013 24.7445 86.9507 24.7825 86.8874C27.756 82.6739 35.2719 70.5016 35.2846 54.5713V37.0214C35.2846 32.0866 39.283 28.0883 44.2177 28.0883H44.4328C49.3675 28.0883 53.3659 32.0866 53.3659 37.0214V54.5713C53.3786 70.5016 60.8945 82.6739 63.868 86.8874C63.906 86.9507 63.9566 87.0013 63.9946 87.0519C64.6652 87.9882 65.0701 88.4817 65.0701 88.4817C67.955 92.5813 69.6505 97.5919 69.6505 102.995Z" fill="white" stroke="#231815" stroke-width="2.03705" stroke-miterlimit="10"/>
<path d="M23.5803 88.4817C23.9093 87.9882 24.2762 87.5074 24.6558 87.0519C23.9852 87.9882 23.5803 88.4817 23.5803 88.4817Z" fill="white" stroke="#231815" stroke-width="2.03705" stroke-miterlimit="10"/>
<path d="M65.0699 88.4817C65.0699 88.4817 64.665 87.9882 63.9944 87.0519C64.374 87.5074 64.7409 87.9882 65.0699 88.4817Z" fill="white" stroke="#231815" stroke-width="2.03705" stroke-miterlimit="10"/>
<path d="M45.7106 37.2493C46.1718 37.2493 46.5457 36.7111 46.5457 36.0473C46.5457 35.3834 46.1718 34.8452 45.7106 34.8452C45.2494 34.8452 44.8755 35.3834 44.8755 36.0473C44.8755 36.7111 45.2494 37.2493 45.7106 37.2493Z" fill="#1E1912"/>
<path d="M49.6334 37.2493C50.0947 37.2493 50.4686 36.7111 50.4686 36.0473C50.4686 35.3834 50.0947 34.8452 49.6334 34.8452C49.1722 34.8452 48.7983 35.3834 48.7983 36.0473C48.7983 36.7111 49.1722 37.2493 49.6334 37.2493Z" fill="#1E1912"/>
<path d="M51.8726 47.0428C50.3922 47.2832 48.8738 47.2832 47.3934 47.0428C45.6726 46.6632 44.344 44.664 44.344 43.095V42.9811C44.344 41.4121 45.6726 39.4003 47.3934 39.0333C48.8738 38.7929 50.3922 38.7929 51.8726 39.0333C53.5934 39.4129 54.922 41.4121 54.922 42.9811C54.922 43.0191 54.922 43.057 54.922 43.095C54.922 44.664 53.6061 46.6758 51.8726 47.0428Z" fill="#FBC83B"/>
<path d="M51.8726 47.0428C50.3922 47.2832 48.8738 47.2832 47.3934 47.0428C45.6726 46.6632 44.344 44.664 44.344 43.095V42.9811C44.344 41.4121 45.6726 39.4003 47.3934 39.0333C48.8738 38.7929 50.3922 38.7929 51.8726 39.0333C53.5934 39.4129 54.922 41.4121 54.922 42.9811C54.922 43.0191 54.922 43.057 54.922 43.095C54.922 44.664 53.6061 46.6758 51.8726 47.0428V47.0428Z" stroke="#1E1912" stroke-width="1.42593" stroke-miterlimit="10"/>
<path d="M46.1787 42.4496C46.1787 42.4496 49.2534 45.5243 52.9861 42.4496" stroke="#1E1912" stroke-width="1.52779" stroke-linecap="round" stroke-linejoin="round"/>
<path d="M47.6719 82.4841C47.6719 82.4841 43 93.5 36.1955 96.8961C34 98.5 26.8955 99.6038 29.3628 107.537C31.3873 114.028 40.3204 113.396 40.3204 113.396C40.3204 113.396 54.2262 111.156 56.4026 97.4401" stroke="black" stroke-width="2.04" stroke-linecap="round" stroke-linejoin="round"/>
</g>
<defs>
<filter id="filter0_f_254_1801" x="60.0304" y="17.5973" width="34.4075" height="70.2025" filterUnits="userSpaceOnUse" color-interpolation-filters="sRGB">
<feFlood flood-opacity="0" result="BackgroundImageFix"/>
<feBlend mode="normal" in="SourceGraphic" in2="BackgroundImageFix" result="shape"/>
<feGaussianBlur stdDeviation="0.701373" result="effect1_foregroundBlur_254_1801"/>
</filter>
</defs>
</svg>
