<svg width="169" height="117" viewBox="0 0 169 117" fill="none" xmlns="http://www.w3.org/2000/svg">
<rect width="169" height="117" rx="11" fill="#ECECEC"/>
<circle cx="156.969" cy="88.7972" r="2.5978" transform="rotate(-179.842 156.969 88.7972)" fill="#A52D2D"/>
<path d="M156.955 93.9927L154.716 90.0898L159.216 90.1022L156.955 93.9927Z" fill="#A52D2D"/>
<circle cx="156.972" cy="87.8525" r="1.65315" transform="rotate(-179.842 156.972 87.8525)" fill="#F6CE55"/>
<path d="M156.963 91.1586L155.538 88.675L158.402 88.6829L156.963 91.1586Z" fill="#F6CE55"/>
<rect x="47" width="9" height="117" fill="#4F4F4F"/>
<rect x="109" width="9" height="117" fill="#4F4F4F"/>
<rect x="47" y="61.4048" width="9.13782" height="70.8181" transform="rotate(-90 47 61.4048)" fill="#4F4F4F"/>
<rect x="47" y="16.1378" width="9.13782" height="70.8181" transform="rotate(-90 47 16.1378)" fill="#4F4F4F"/>
<rect x="47" y="107.094" width="9.13782" height="70.8181" transform="rotate(-90 47 107.094)" fill="#4F4F4F"/>
<mask id="mask0_249_1456" style="mask-type:alpha" maskUnits="userSpaceOnUse" x="59" y="0" width="70" height="117">
<rect x="59" width="69.7581" height="116.645" fill="#D9D9D9"/>
</mask>
<g mask="url(#mask0_249_1456)">
<path d="M97.8673 4.32425L95.8746 -1.30212L94.468 1.15941" stroke="#1E1912" stroke-width="0.586083" stroke-miterlimit="10" stroke-linecap="round" stroke-linejoin="round"/>
<path d="M98.5707 -3.52931C101.149 -1.53663 99.8601 1.39379 96.578 0.690495C94.5853 3.26926 91.6549 1.97988 92.3582 -1.30218C89.7794 -3.29486 91.0688 -6.22528 94.3509 -5.52198C96.3436 -8.10075 99.274 -6.69415 98.5707 -3.52931Z" fill="#16701B"/>
<path d="M94.9367 -1.65381L93.999 0.221645" stroke="white" stroke-width="0.293041" stroke-miterlimit="10" stroke-linecap="round" stroke-linejoin="round"/>
<path d="M121.897 73.7164V76.1779C121.897 89.189 111.347 99.6212 98.4536 99.6212C85.4425 99.6212 75.0103 89.0718 75.0103 76.1779V73.7164C75.0103 68.6761 76.5341 64.1047 79.2301 60.2365C79.2301 60.2365 79.5817 59.7676 80.1678 58.9471L80.285 58.8299C82.981 54.9618 90.014 43.5918 90.014 28.9397V12.6466C90.014 8.07515 93.7649 4.32422 98.3364 4.32422H98.5708C103.142 4.32422 106.893 8.07515 106.893 12.6466V28.9397C106.893 43.709 113.926 54.9618 116.622 58.8299L116.739 58.9471C117.325 59.7676 117.677 60.2365 117.677 60.2365C120.256 64.1047 121.897 68.6761 121.897 73.7164Z" fill="white" stroke="#231815" stroke-width="1.17217" stroke-miterlimit="10"/>
<path d="M97.8673 98.918C96.5779 101.497 92.4753 102.317 88.49 102.317C84.5046 102.2 80.402 101.497 79.1127 98.918C77.8233 96.3393 81.8086 91.7678 88.49 91.7678C95.1713 91.7678 99.2739 96.3393 97.8673 98.918Z" fill="#F6CE55"/>
<path d="M97.8673 98.918C96.5779 101.497 92.4753 102.317 88.49 102.317C84.5046 102.2 80.402 101.497 79.1127 98.918C77.8233 96.3393 81.8086 91.7678 88.49 91.7678C95.1713 91.7678 99.2739 96.3393 97.8673 98.918Z" stroke="#1E1912" stroke-width="0.820516" stroke-miterlimit="10"/>
<path d="M117.677 98.918C116.387 101.497 112.285 102.317 108.3 102.317C104.314 102.2 100.212 101.497 98.9222 98.918C97.6328 96.3393 101.618 91.7678 108.3 91.7678C114.981 91.7678 118.966 96.3393 117.677 98.918Z" fill="#F6CE55"/>
<path d="M117.677 98.918C116.387 101.497 112.285 102.317 108.3 102.317C104.314 102.2 100.212 101.497 98.9222 98.918C97.6328 96.3393 101.618 91.7678 108.3 91.7678C114.981 91.7678 118.966 96.3393 117.677 98.918Z" stroke="#1E1912" stroke-width="0.820516" stroke-miterlimit="10"/>
<path d="M96.738 34.815C96.738 33.2603 97.9983 32 99.553 32H100.96C102.515 32 103.775 33.2603 103.775 34.815V46.0748H96.738V34.815Z" fill="#871919"/>
<path d="M102.368 34.815C102.368 33.2603 103.628 32 105.183 32H106.59C108.145 32 109.405 33.2603 109.405 34.815V46.0748H102.368V34.815Z" fill="#A52D2D"/>
<path d="M107.998 34.815C107.998 33.2603 109.258 32 110.813 32H112.22C113.775 32 115.035 33.2603 115.035 34.815V46.0748H107.998V34.815Z" fill="#7A1515"/>
<path d="M99.7354 33.0757C99.5009 32.1374 99.0317 28.1495 101.847 28.1495" stroke="#181818" stroke-width="0.703739" stroke-linecap="round"/>
<path d="M105.365 33.0757C105.131 32.1374 104.662 28.1495 107.477 28.1495" stroke="#181818" stroke-width="0.703739" stroke-linecap="round"/>
<path d="M111.516 33.5157C111.282 32.5773 110.813 28.5895 113.628 28.5895" stroke="#181818" stroke-width="0.703739" stroke-linecap="round"/>
<rect x="96.738" y="39.4094" width="18.2972" height="2.81496" fill="#242424"/>
<path d="M93.3074 48.0302C93.3074 46.767 94.3314 45.743 95.5945 45.743H115.035C116.298 45.743 117.322 46.767 117.322 48.0302V67.471C117.322 70.6289 114.762 73.1889 111.605 73.1889H99.0253C95.8674 73.1889 93.3074 70.6289 93.3074 67.471V48.0302Z" fill="#232323"/>
<path d="M76.1538 67.471C82.0623 68.2334 94.5654 67.8141 97.31 60.0378C98.2629 56.0353 97.7674 47.1154 88.1614 43.4559" stroke="#232323" stroke-width="4.5743" stroke-linecap="round"/>
</g>
<path d="M155.396 78.7058C156.658 79.5419 157.003 81.2426 156.167 82.5045L155.505 83.5041C154.669 84.766 152.968 85.1113 151.706 84.2752L130.284 70.0824C129.022 69.2468 128.677 67.5472 129.513 66.2861L130.177 65.2836C131.013 64.0224 132.712 63.6774 133.974 64.513L155.396 78.7058Z" fill="#540505"/>
<rect x="153.04" y="77.1445" width="6.68085" height="20.0425" transform="rotate(123.526 153.04 77.1445)" fill="#A52D2D"/>
<path d="M154.524 82.3483C155.412 82.6625 158.901 84.4262 157.387 86.7111" stroke="#181818" stroke-width="0.685215" stroke-linecap="round"/>
</svg>
