<svg width="169" height="117" viewBox="0 0 169 117" fill="none" xmlns="http://www.w3.org/2000/svg">
<rect width="169" height="117" rx="11" fill="#ECECEC"/>
<mask id="mask0_254_1802" style="mask-type:alpha" maskUnits="userSpaceOnUse" x="0" y="0" width="169" height="117">
<rect width="169" height="117" rx="11" fill="#ECECEC"/>
</mask>
<g mask="url(#mask0_254_1802)">
<rect width="108.719" height="136.124" rx="10.2966" transform="matrix(0.982501 -0.186259 0.183196 0.983076 18 29.3274)" fill="#D3D3D3"/>
<mask id="mask1_254_1802" style="mask-type:alpha" maskUnits="userSpaceOnUse" x="69" y="25" width="54" height="59">
<path d="M116.597 53.7802L117.741 55.0973C123.787 62.0594 123.005 72.5566 116.123 78.5639C109.18 84.6258 98.7103 83.8413 92.7189 76.9419L91.5751 75.6248C89.233 72.9277 87.922 69.7717 87.5634 66.4458C87.5634 66.4458 87.5332 66.031 87.4647 65.3189L87.4728 65.2016C87.1141 61.8757 85.5842 52.5151 78.7758 44.6749L71.2049 35.9566C69.0806 33.5105 69.3395 29.7558 71.7791 27.6259L71.9042 27.5167C74.3439 25.3869 78.0886 25.6464 80.2129 28.0925L87.7838 36.8108C94.6466 44.7137 103.629 47.4583 106.865 48.272L106.982 48.2801C107.676 48.4461 108.082 48.5332 108.082 48.5332C111.255 49.4015 114.255 51.0831 116.597 53.7802Z" fill="white" stroke="#231815" stroke-width="0.829486" stroke-miterlimit="10"/>
</mask>
<g mask="url(#mask1_254_1802)">
<rect width="48.3282" height="92.8155" transform="matrix(0.752415 -0.660759 0.652561 0.755946 39.7349 28.723)" fill="#C1C1C1"/>
</g>
<path d="M116.709 80.1986C117.312 82.538 115.178 85.3131 112.667 87.505C110.092 89.6228 107.121 91.4345 104.893 90.5135C102.665 89.5924 102.666 84.5105 106.875 80.8359C111.085 77.1612 116.179 77.7948 116.709 80.1986Z" fill="#C1C1C1"/>
<path d="M129.193 69.3003C129.796 71.6397 127.662 74.4147 125.151 76.6066C122.576 78.7243 119.605 80.5361 117.377 79.6149C115.149 78.6938 115.15 73.612 119.36 69.9374C123.569 66.2628 128.59 66.9609 129.193 69.3003Z" fill="#C1C1C1"/>
<mask id="mask2_254_1802" style="mask-type:alpha" maskUnits="userSpaceOnUse" x="47" y="75" width="35" height="69">
<path d="M81.2063 126.508L81.003 128.243C79.9285 137.411 71.6529 143.888 62.5913 142.821C53.4474 141.743 46.9869 133.446 48.0518 124.36L48.2551 122.626C48.6713 119.074 50.1198 115.979 52.3339 113.476C52.3339 113.476 52.6198 113.175 53.0994 112.645L53.1915 112.573C55.4056 110.07 61.2873 102.641 62.4974 92.3161L63.8429 80.8351C64.2205 77.6139 67.1664 75.2814 70.3791 75.6599L70.5438 75.6793C73.7566 76.0578 76.0829 79.0115 75.7054 82.2328L74.3598 93.7137C73.1401 104.121 77.1534 112.633 78.7287 115.581L78.8014 115.674C79.1455 116.3 79.3539 116.66 79.3539 116.66C80.8468 119.599 81.6225 122.956 81.2063 126.508Z" fill="white" stroke="#231815" stroke-width="0.829486" stroke-miterlimit="10"/>
</mask>
<g mask="url(#mask2_254_1802)">
<rect width="48.2633" height="92.939" transform="matrix(0.992163 0.117591 -0.115822 0.994157 48.1479 52.8141)" fill="#C1C1C1"/>
</g>
<rect width="19.4549" height="12.6895" rx="3.4322" transform="matrix(0.982501 -0.186259 0.183196 0.983076 34.1807 66.1807)" fill="#E3E3E3"/>
<rect width="19.4549" height="12.6895" rx="3.4322" transform="matrix(0.982501 -0.186259 0.183196 0.983076 57.7927 61.7042)" fill="#E3E3E3"/>
<rect width="19.4549" height="12.6895" rx="3.4322" transform="matrix(0.982501 -0.186259 0.183196 0.983076 81.4045 57.228)" fill="#E3E3E3"/>
<rect width="19.4549" height="12.6895" rx="3.4322" transform="matrix(0.982501 -0.186259 0.183196 0.983076 105.017 52.7517)" fill="#E3E3E3"/>
<rect width="19.4549" height="12.6895" rx="3.4322" transform="matrix(0.982501 -0.186259 0.183196 0.983076 38.1958 87.728)" fill="#E3E3E3"/>
<rect width="19.4549" height="12.6895" rx="3.4322" transform="matrix(0.982501 -0.186259 0.183196 0.983076 61.8079 83.2517)" fill="#E3E3E3"/>
<rect width="19.4549" height="12.6895" rx="3.4322" transform="matrix(0.982501 -0.186259 0.183196 0.983076 85.4197 78.7755)" fill="#E3E3E3"/>
<rect width="19.4549" height="12.6895" rx="3.4322" transform="matrix(0.982501 -0.186259 0.183196 0.983076 109.032 74.2991)" fill="#E3E3E3"/>
<rect width="19.4549" height="12.6895" rx="3.4322" transform="matrix(0.982501 -0.186259 0.183196 0.983076 42.4226 110.409)" fill="#E3E3E3"/>
<rect width="19.4549" height="12.6895" rx="3.4322" transform="matrix(0.982501 -0.186259 0.183196 0.983076 66.0347 105.933)" fill="#E3E3E3"/>
<rect width="19.4549" height="12.6895" rx="3.4322" transform="matrix(0.982501 -0.186259 0.183196 0.983076 89.6465 101.457)" fill="#E3E3E3"/>
<rect width="19.4549" height="12.6895" rx="3.4322" transform="matrix(0.982501 -0.186259 0.183196 0.983076 113.259 96.9805)" fill="#E3E3E3"/>
<rect width="19.4549" height="12.6895" rx="3.4322" transform="matrix(0.982501 -0.186259 0.183196 0.983076 117.486 119.662)" fill="#E3E3E3"/>
</g>
</svg>
