<svg width="17" height="17" viewBox="0 0 17 17" fill="none" xmlns="http://www.w3.org/2000/svg">
<path d="M15.4784 8.53055C19.2318 14.6403 14.3235 19.4408 8.40477 15.6586C2.34166 19.4408 -2.42221 14.4948 1.33115 8.53055C-2.42221 2.4208 2.48602 -2.37972 8.40477 1.4025C14.4679 -2.52519 19.3762 2.4208 15.4784 8.53055Z" fill="#16701B"/>
<path d="M6.67226 7.51227C6.5279 7.51227 6.52788 7.51226 6.38352 7.36679L3.20764 4.16645C3.06328 4.02098 3.06328 3.73004 3.20764 3.58457C3.35199 3.4391 3.64071 3.4391 3.78507 3.58457L6.96096 6.78492C7.10531 6.93039 7.10531 7.22132 6.96096 7.36679C6.8166 7.36679 6.67226 7.51227 6.67226 7.51227Z" fill="white"/>
<path d="M3.49633 13.4766C3.35197 13.4766 3.35199 13.4766 3.20764 13.3312C3.06328 13.1857 3.06328 12.8947 3.20764 12.7493L6.38352 9.54892C6.52788 9.40345 6.8166 9.40345 6.96096 9.54892C7.10531 9.69439 7.10531 9.98534 6.96096 10.1308L3.78507 13.3312C3.64071 13.4766 3.49633 13.4766 3.49633 13.4766Z" fill="white"/>
<path d="M12.7355 13.3311C12.5911 13.3311 12.5912 13.3311 12.4468 13.1856L9.27087 9.9853C9.12651 9.83983 9.12651 9.54888 9.27087 9.40341C9.41523 9.25794 9.70394 9.25794 9.8483 9.40341L13.0242 12.6038C13.1686 12.7492 13.1686 13.0402 13.0242 13.1856C12.8799 13.3311 12.7355 13.3311 12.7355 13.3311Z" fill="white"/>
<path d="M9.5596 7.36687C9.41524 7.36687 9.41523 7.36688 9.27087 7.22141C9.12651 7.07594 9.12651 6.78499 9.27087 6.63952L12.4468 3.43918C12.5912 3.29371 12.8799 3.29371 13.0242 3.43918C13.1686 3.58465 13.1686 3.87559 13.0242 4.02106L9.8483 7.22141C9.70394 7.36688 9.5596 7.36687 9.5596 7.36687Z" fill="white"/>
</svg>
