<svg width="51" height="108" viewBox="0 0 51 108" fill="none" xmlns="http://www.w3.org/2000/svg">
<path d="M45.1133 103.755C43.8774 106.279 39.9805 106.952 36.206 107.031C32.4427 106.952 28.5347 106.279 27.2988 103.755C26.0184 101.298 29.8596 96.922 36.206 96.9108C42.5524 96.922 46.3825 101.298 45.1133 103.755Z" fill="#F6CE55"/>
<path d="M45.1133 103.755C43.8774 106.279 39.9805 106.952 36.206 107.031C32.4427 106.952 28.5347 106.279 27.2988 103.755C26.0184 101.298 29.8596 96.922 36.206 96.9108C42.5524 96.922 46.3825 101.298 45.1133 103.755Z" stroke="#1E1912" stroke-width="1.26439" stroke-miterlimit="10"/>
<path d="M35.326 55.0166C35.326 55.0166 38.7998 61.726 43.0085 65.7426C44.4336 67.1002 51.025 69.49 49.0209 75.1784C47.0167 80.8668 39.3788 80.3731 39.3788 80.3731C39.3788 80.3731 27.1425 78.3872 25.2274 66.2251" stroke="black" stroke-width="1.35471" stroke-linecap="round" stroke-linejoin="round"/>
<path d="M22.7781 10.9232L20.8631 5.61633L19.5826 7.98369" stroke="#1E1912" stroke-width="0.903138" stroke-linecap="round" stroke-linejoin="round"/>
<path d="M23.4013 3.46199C25.8619 5.38056 24.5815 8.1406 21.5419 7.47864C19.638 9.95819 16.899 8.66793 17.5559 5.60495C15.0953 3.68639 16.3757 0.926345 19.4153 1.58831C21.3192 -0.891244 24.0582 0.39902 23.4013 3.46199Z" fill="#16701B"/>
<path d="M19.4825 4.03426L17.7007 3.15894" stroke="white" stroke-width="0.451569" stroke-linecap="round" stroke-linejoin="round"/>
<path d="M19.9277 5.21252L19.0702 7.00807" stroke="white" stroke-width="0.451569" stroke-linecap="round" stroke-linejoin="round"/>
<path d="M21.0635 4.66241L22.8453 5.53774" stroke="white" stroke-width="0.451569" stroke-linecap="round" stroke-linejoin="round"/>
<path d="M20.6625 3.57453L21.5311 1.76776" stroke="white" stroke-width="0.451569" stroke-linecap="round" stroke-linejoin="round"/>
<path d="M45.5696 77.422V79.7669C45.5696 92.1647 35.5935 102.218 23.2903 102.218C10.9872 102.218 1 92.1647 1 79.7669V77.422C1 72.6312 2.49196 68.1882 5.03052 64.553C5.03052 64.553 5.38681 64.1155 5.97692 63.2852C6.01032 63.2403 6.05485 63.1954 6.08826 63.1393C8.70476 59.4032 15.3184 48.6099 15.3295 34.4843V18.9226C15.3295 14.5469 18.8479 11.0015 23.1901 11.0015H23.3794C27.7217 11.0015 31.2401 14.5469 31.2401 18.9226V34.4843C31.2512 48.6099 37.8648 59.4032 40.4813 63.1393C40.5147 63.1954 40.5592 63.2403 40.5926 63.2852C41.1828 64.1155 41.539 64.553 41.539 64.553C44.0776 68.1882 45.5696 72.6312 45.5696 77.422Z" fill="white" stroke="#231815" stroke-width="1.80628" stroke-miterlimit="10"/>
<path d="M5.03052 64.5533C5.32007 64.1157 5.64302 63.6892 5.97712 63.2852C5.38688 64.1157 5.03052 64.5533 5.03052 64.5533Z" fill="white" stroke="#231815" stroke-width="1.80628" stroke-miterlimit="10"/>
<path d="M41.539 64.5533C41.539 64.5533 41.1826 64.1157 40.5924 63.2852C40.9265 63.6892 41.2495 64.1157 41.539 64.5533Z" fill="white" stroke="#231815" stroke-width="1.80628" stroke-miterlimit="10"/>
<path d="M29.9263 27.8089C28.6236 28.022 27.2875 28.022 25.9848 27.8089C24.4706 27.4723 23.3015 25.6996 23.3015 24.3083V24.2074C23.3015 22.8161 24.4706 21.0322 25.9848 20.7068C27.2875 20.4936 28.6236 20.4936 29.9263 20.7068C31.4405 21.0434 32.6096 22.8161 32.6096 24.2074C32.6096 24.241 32.6096 24.2747 32.6096 24.3083C32.6096 25.6996 31.4516 27.4835 29.9263 27.8089Z" fill="#FBC83B"/>
<path d="M29.9263 27.8089C28.6236 28.022 27.2875 28.022 25.9848 27.8089C24.4706 27.4723 23.3015 25.6996 23.3015 24.3083V24.2074C23.3015 22.8161 24.4706 21.0322 25.9848 20.7068C27.2875 20.4936 28.6236 20.4936 29.9263 20.7068C31.4405 21.0434 32.6096 22.8161 32.6096 24.2074C32.6096 24.241 32.6096 24.2747 32.6096 24.3083C32.6096 25.6996 31.4516 27.4835 29.9263 27.8089V27.8089Z" stroke="#1E1912" stroke-width="1.26439" stroke-miterlimit="10"/>
<path d="M24.9159 23.7359C24.9159 23.7359 27.6215 26.4623 30.906 23.7359" stroke="#1E1912" stroke-width="1.35471" stroke-linecap="round" stroke-linejoin="round"/>
<path d="M31.8971 103.755C30.6612 106.279 26.7643 106.952 22.9898 107.031C19.2265 106.952 15.3185 106.279 14.0826 103.755C12.8022 101.298 16.6434 96.922 22.9898 96.9108C29.3362 96.922 33.1664 101.298 31.8971 103.755Z" fill="#F6CE55"/>
<path d="M31.8971 103.755C30.6612 106.279 26.7643 106.952 22.9898 107.031C19.2265 106.952 15.3185 106.279 14.0826 103.755C12.8022 101.298 16.6434 96.922 22.9898 96.9108C29.3362 96.922 33.1664 101.298 31.8971 103.755Z" stroke="#1E1912" stroke-width="1.26439" stroke-miterlimit="10"/>
<path d="M26.2296 59.235C26.2296 59.235 20.3397 67.9976 16.131 72.0143C14.7058 73.3719 7.94747 74.4153 10.1186 81.45C11.9001 87.2057 19.7607 86.6447 19.7607 86.6447C19.7607 86.6447 31.997 84.6589 33.9121 72.4967" stroke="black" stroke-width="1.35471" stroke-linecap="round" stroke-linejoin="round"/>
<path d="M30.3149 15.5595L21.2316 18.0368C24.1216 21.3399 26.0083 19.4891 27.0118 18.4497C30.1477 19.0812 30.3277 16.8268 30.3149 15.5595Z" fill="#231815"/>
</svg>
