<svg width="51" height="108" viewBox="0 0 51 108" fill="none" xmlns="http://www.w3.org/2000/svg">
<path d="M45.1133 103.755C43.8774 106.279 39.9805 106.952 36.206 107.031C32.4427 106.952 28.5347 106.279 27.2988 103.755C26.0184 101.298 29.8596 96.9219 36.206 96.9107C42.5524 96.9219 46.3825 101.298 45.1133 103.755Z" fill="#F6CE55"/>
<path d="M45.1133 103.755C43.8774 106.279 39.9805 106.952 36.206 107.031C32.4427 106.952 28.5347 106.279 27.2988 103.755C26.0184 101.298 29.8596 96.9219 36.206 96.9107C42.5524 96.9219 46.3825 101.298 45.1133 103.755Z" stroke="#1E1912" stroke-width="1.26439" stroke-miterlimit="10"/>
<path d="M35.326 55.0165C35.326 55.0165 38.7998 61.7259 43.0085 65.7426C44.4336 67.1001 51.025 69.4899 49.0209 75.1783C47.0167 80.8667 39.3788 80.373 39.3788 80.373C39.3788 80.373 27.1425 78.3871 25.2274 66.225" stroke="black" stroke-width="1.35471" stroke-linecap="round" stroke-linejoin="round"/>
<path d="M22.7782 10.9232L20.8632 5.61627L19.5828 7.98362" stroke="#1E1912" stroke-width="0.903138" stroke-linecap="round" stroke-linejoin="round"/>
<path d="M23.4014 3.46193C25.8621 5.3805 24.5816 8.14054 21.5421 7.47858C19.6381 9.95813 16.8992 8.66787 17.5561 5.60489C15.0954 3.68633 16.3759 0.926284 19.4154 1.58825C21.3194 -0.891305 24.0583 0.398959 23.4014 3.46193Z" fill="#16701B"/>
<path d="M19.4826 4.03433L17.7008 3.159" stroke="white" stroke-width="0.451569" stroke-linecap="round" stroke-linejoin="round"/>
<path d="M19.9278 5.21246L19.0703 7.00801" stroke="white" stroke-width="0.451569" stroke-linecap="round" stroke-linejoin="round"/>
<path d="M21.0635 4.66235L22.8453 5.53768" stroke="white" stroke-width="0.451569" stroke-linecap="round" stroke-linejoin="round"/>
<path d="M20.6626 3.57453L21.5312 1.76776" stroke="white" stroke-width="0.451569" stroke-linecap="round" stroke-linejoin="round"/>
<path d="M45.5697 77.4219V79.7669C45.5697 92.1646 35.5936 102.217 23.2905 102.217C10.9874 102.217 1.00012 92.1646 1.00012 79.7669V77.4219C1.00012 72.6311 2.49208 68.1881 5.03065 64.553C5.03065 64.553 5.38693 64.1154 5.97704 63.2851C6.01044 63.2403 6.05498 63.1954 6.08838 63.1393C8.70488 59.4031 15.3185 48.6098 15.3296 34.4842V18.9225C15.3296 14.5468 18.848 11.0014 23.1903 11.0014H23.3795C27.7218 11.0014 31.2402 14.5468 31.2402 18.9225V34.4842C31.2513 48.6098 37.8649 59.4031 40.4814 63.1393C40.5148 63.1954 40.5594 63.2403 40.5928 63.2851C41.1829 64.1154 41.5392 64.553 41.5392 64.553C44.0777 68.1881 45.5697 72.6311 45.5697 77.4219Z" fill="white" stroke="#231815" stroke-width="1.80628" stroke-miterlimit="10"/>
<path d="M5.03052 64.5533C5.32007 64.1156 5.64302 63.6892 5.97712 63.2852C5.38688 64.1156 5.03052 64.5533 5.03052 64.5533Z" fill="white" stroke="#231815" stroke-width="1.80628" stroke-miterlimit="10"/>
<path d="M41.5391 64.5533C41.5391 64.5533 41.1828 64.1156 40.5925 63.2852C40.9266 63.6892 41.2496 64.1156 41.5391 64.5533Z" fill="white" stroke="#231815" stroke-width="1.80628" stroke-miterlimit="10"/>
<path d="M24.5041 19.1252C24.91 19.1252 25.2391 18.6479 25.2391 18.0591C25.2391 17.4703 24.91 16.993 24.5041 16.993C24.0981 16.993 23.769 17.4703 23.769 18.0591C23.769 18.6479 24.0981 19.1252 24.5041 19.1252Z" fill="#1E1912"/>
<path d="M27.956 19.1252C28.3619 19.1252 28.691 18.6479 28.691 18.0591C28.691 17.4703 28.3619 16.993 27.956 16.993C27.55 16.993 27.2209 17.4703 27.2209 18.0591C27.2209 18.6479 27.55 19.1252 27.956 19.1252Z" fill="#1E1912"/>
<path d="M29.9263 27.8088C28.6236 28.022 27.2875 28.022 25.9848 27.8088C24.4706 27.4722 23.3015 25.6995 23.3015 24.3083V24.2073C23.3015 22.8161 24.4706 21.0321 25.9848 20.7068C27.2875 20.4936 28.6236 20.4936 29.9263 20.7068C31.4405 21.0433 32.6096 22.8161 32.6096 24.2073C32.6096 24.241 32.6096 24.2746 32.6096 24.3083C32.6096 25.6995 31.4516 27.4834 29.9263 27.8088Z" fill="#FBC83B"/>
<path d="M29.9263 27.8088C28.6236 28.022 27.2875 28.022 25.9848 27.8088C24.4706 27.4722 23.3015 25.6995 23.3015 24.3083V24.2073C23.3015 22.8161 24.4706 21.0321 25.9848 20.7068C27.2875 20.4936 28.6236 20.4936 29.9263 20.7068C31.4405 21.0433 32.6096 22.8161 32.6096 24.2073C32.6096 24.241 32.6096 24.2746 32.6096 24.3083C32.6096 25.6995 31.4516 27.4834 29.9263 27.8088V27.8088Z" stroke="#1E1912" stroke-width="1.26439" stroke-miterlimit="10"/>
<path d="M24.916 23.736C24.916 23.736 27.6216 26.4623 30.9061 23.736" stroke="#1E1912" stroke-width="1.35471" stroke-linecap="round" stroke-linejoin="round"/>
<path d="M31.8972 103.755C30.6613 106.279 26.7644 106.952 22.99 107.031C19.2267 106.952 15.3186 106.279 14.0827 103.755C12.8023 101.298 16.6436 96.9219 22.99 96.9107C29.3364 96.9219 33.1665 101.298 31.8972 103.755Z" fill="#F6CE55"/>
<path d="M31.8972 103.755C30.6613 106.279 26.7644 106.952 22.99 107.031C19.2267 106.952 15.3186 106.279 14.0827 103.755C12.8023 101.298 16.6436 96.9219 22.99 96.9107C29.3364 96.9219 33.1665 101.298 31.8972 103.755Z" stroke="#1E1912" stroke-width="1.26439" stroke-miterlimit="10"/>
<path d="M26.2297 59.2351C26.2297 59.2351 20.3398 67.9977 16.1311 72.0143C14.706 73.3719 7.94759 74.4153 10.1187 81.4501C11.9002 87.2058 19.7608 86.6448 19.7608 86.6448C19.7608 86.6448 31.9971 84.6589 33.9122 72.4968" stroke="black" stroke-width="1.35471" stroke-linecap="round" stroke-linejoin="round"/>
</svg>
