<svg width="331" height="165" viewBox="0 0 331 165" fill="none" xmlns="http://www.w3.org/2000/svg">
<path d="M85.504 110.891C83.1441 139.285 65.2834 154.219 56.6481 158.136C11.3048 145.581 3.33154 82.6038 18.2546 54.208C30.1931 31.4915 58.5726 28.8237 71.27 30.3293C84.722 17.9107 103.975 20.0697 111.92 22.7016C123.69 24.0556 122.738 39.8536 104.461 68.3074C92.2986 87.2414 100.567 73.8696 94.5712 83.1318L92.2986 87.2414L86.6948 103.61L85.504 110.891Z" fill="#E8B461"/>
<path d="M23.6345 56.23C27.901 47.6008 42.5864 30.4348 67.195 30.805C58.4652 34.1359 37.5314 43.8842 23.6345 56.23Z" fill="#915717"/>
<path d="M16.5981 69.949C10.9827 98.2041 40.9093 138.336 57.103 155.355C12.9335 138.482 11.4324 93.0773 16.5981 69.949C16.7841 69.0132 17.0091 68.0903 17.2749 67.1818C17.0395 68.0632 16.813 68.9868 16.5981 69.949Z" fill="#915717"/>
<path d="M81.1794 29.095C74.6031 35.7856 67.5256 38.0924 64.8088 38.4095C72.9798 44.3142 80.4422 40.5857 83.152 37.9833C78.2182 48.5973 83.5444 55.3692 86.8242 57.4284C90.3006 30.5868 96.7418 28.214 101.646 26.1609C106.368 25.2201 113.632 27.3599 115.176 27.2317C114.504 25.7513 111.862 24.2152 110.625 23.6322C103.021 21.2463 89.3998 20.7317 81.1794 29.095Z" fill="#FFDFBB"/>
<path d="M249.235 107.091C237.889 95.1337 238.428 98.7229 233.317 91.4418C228.774 84.9696 228.511 90.3456 222.711 68.7828C217.342 48.8212 220.129 44.22 220.422 41.1226C223.484 25.4324 223.471 21.2704 231.725 19.8861C242.765 15.5849 286.846 44.181 309.534 69.2595C327.684 89.3223 320.507 116.106 314.65 126.989L273.638 116.386L264.767 114.643L249.235 107.091Z" fill="#E8B461"/>
<path d="M319.765 108.004L298.759 95.8946L300.915 107.208" stroke="#E2942F" stroke-width="2.38074" stroke-miterlimit="10" stroke-linecap="round" stroke-linejoin="round"/>
<path d="M301.202 81.9013C314.424 81.2452 318.18 93.6961 306.191 100.19C306.847 113.412 294.396 117.167 287.902 105.178C274.68 105.834 270.925 93.3834 282.914 86.8899C282.258 73.6679 295.018 70.274 301.202 81.9013Z" fill="#E2942F"/>
<path d="M290.084 94.542L281.456 96.9077" stroke="#E8B461" stroke-width="1.19037" stroke-miterlimit="10" stroke-linecap="round" stroke-linejoin="round"/>
<path d="M294.935 97.2846L296.992 105.55" stroke="#E8B461" stroke-width="1.19037" stroke-miterlimit="10" stroke-linecap="round" stroke-linejoin="round"/>
<path d="M297.007 92.3809L304.963 89.9627" stroke="#E8B461" stroke-width="1.19037" stroke-miterlimit="10" stroke-linecap="round" stroke-linejoin="round"/>
<path d="M292.464 90.0005L290.408 81.7347" stroke="#E8B461" stroke-width="1.19037" stroke-miterlimit="10" stroke-linecap="round" stroke-linejoin="round"/>
<path d="M230.904 23.585C222.149 40.1867 215.464 80.0195 258.756 106.537C243.139 91.1207 215.704 52.9474 230.904 23.585Z" fill="#915717"/>
<path d="M199.87 40.1645H210.086C210.086 52.6008 201.555 53.1626 199.87 52.6008C198.538 52.1567 192.467 49.0476 188.766 46.3826L199.87 40.1645Z" fill="#E8B461"/>
<path d="M209.221 58.9067L213.737 55.7099C217.797 61.4454 214.209 64.3739 213.28 64.6423C212.546 64.8544 208.848 65.3201 206.341 65.2493L209.221 58.9067Z" fill="#E8B461"/>
<path d="M184.836 56.2418L189.352 53.045C193.412 58.7805 189.824 61.709 188.896 61.9774C188.161 62.1895 187.342 60.2222 184.836 60.1514L184.836 56.2418Z" fill="#915717"/>
<path d="M44.41 71.241C46.1799 71.241 47.6148 69.3961 47.6148 67.1205C47.6148 64.8448 46.1799 63 44.41 63C42.64 63 41.2051 64.8448 41.2051 67.1205C41.2051 69.3961 42.64 71.241 44.41 71.241Z" fill="#E2942F"/>
<path d="M69.1315 71.241C70.9015 71.241 72.3364 69.3961 72.3364 67.1205C72.3364 64.8448 70.9015 63 69.1315 63C67.3615 63 65.9268 64.8448 65.9268 67.1205C65.9268 69.3961 67.3615 71.241 69.1315 71.241Z" fill="#E2942F"/>
<path d="M65.0121 101.916C59.5181 102.832 54.0241 102.832 48.9879 101.916C42.5783 100.542 38 93.2171 38 87.7231V87.2653C38 81.7713 42.5783 74.446 48.9879 73.0725C54.4819 72.1568 59.9759 72.1568 65.0121 73.0725C71.4217 74.446 76 81.7713 76 87.2653V87.7231C76 93.2171 71.4217 100.542 65.0121 101.916Z" stroke="#E2942F" stroke-width="3.20483" stroke-miterlimit="10"/>
<path d="M44.4092 85.4336C44.4092 85.4336 55.3971 96.4216 69.1321 85.4336" stroke="#E2942F" stroke-width="3.43374" stroke-miterlimit="10" stroke-linecap="round" stroke-linejoin="round"/>
</svg>
