<svg width="181" height="156" viewBox="0 0 181 156" fill="none" xmlns="http://www.w3.org/2000/svg">
<path d="M100.03 99.8061C102.482 130.697 85.933 149.861 77.3522 155.582C26.4799 150.065 6.86651 83.8703 17.899 50.7727C26.7251 24.2946 56.7172 16.4492 70.6101 15.8363C82.8684 0.14557 103.912 -0.916859 112.901 0.513266C125.773 -0.0996523 161.322 44.6434 176.032 78.3539C187.8 105.322 171.129 130.452 161.322 139.646L122.708 114.516L112.901 113.29L100.03 99.8061Z" fill="#E8B461"/>
<mask id="mask0_265_1989" style="mask-type:alpha" maskUnits="userSpaceOnUse" x="14" y="0" width="167" height="156">
<path d="M100.03 99.8061C102.482 130.697 85.933 149.861 77.3522 155.582C26.4799 150.065 6.86651 83.8703 17.899 50.7727C26.7251 24.2946 56.7172 16.4492 70.6101 15.8363C82.8684 0.14557 103.912 -0.916859 112.901 0.513266C125.773 -0.0996523 161.322 44.6434 176.032 78.3539C187.8 105.322 171.129 130.452 161.322 139.646L122.708 114.516L112.901 113.29L100.03 99.8061Z" fill="#E8B461"/>
</mask>
<g mask="url(#mask0_265_1989)">
<path d="M178.482 110.82L158.384 97.2579L159.736 108.695" stroke="#E2942F" stroke-width="2.38074" stroke-miterlimit="10" stroke-linecap="round" stroke-linejoin="round"/>
<path d="M161.809 83.472C175.045 83.7511 177.912 96.4361 165.494 102.067C165.215 115.302 152.53 118.17 146.899 105.752C133.664 105.473 130.796 92.7876 143.214 87.1568C143.493 73.9215 156.462 71.437 161.809 83.472Z" fill="#E2942F"/>
<path d="M149.826 95.296L141.053 97.0466" stroke="#E8B461" stroke-width="1.19037" stroke-miterlimit="10" stroke-linecap="round" stroke-linejoin="round"/>
<path d="M154.472 98.3744L155.939 106.765" stroke="#E8B461" stroke-width="1.19037" stroke-miterlimit="10" stroke-linecap="round" stroke-linejoin="round"/>
<path d="M156.884 93.6289L164.991 91.7785" stroke="#E8B461" stroke-width="1.19037" stroke-miterlimit="10" stroke-linecap="round" stroke-linejoin="round"/>
<path d="M152.521 90.9338L151.054 82.5435" stroke="#E8B461" stroke-width="1.19037" stroke-miterlimit="10" stroke-linecap="round" stroke-linejoin="round"/>
<path d="M107.385 9.70715C92.675 20.0042 96.3525 74.0636 100.03 99.8062L112.901 126.162L126.386 116.355C110.205 94.7803 106.976 36.267 107.385 9.70715Z" fill="#E2942F"/>
</g>
<path d="M24.0285 51.9985C27.0931 41.9875 39.8418 20.9848 66.3199 17.0621C57.5347 22.1698 36.7772 36.3078 24.0285 51.9985Z" fill="#915717"/>
<path d="M18.8846 67.9587C17.8175 99.2714 56.9835 137.092 77.3524 152.517C26.9821 142.161 17.4001 93.6897 18.8846 67.9587C18.9199 66.9215 18.9994 65.8916 19.1251 64.8698C19.0272 65.8571 18.9463 66.8882 18.8846 67.9587Z" fill="#915717"/>
<path d="M81.0296 12.7718C75.1456 21.1075 67.954 24.8259 65.0938 25.6431C74.9004 30.5465 82.2555 25.2345 84.7071 21.9656C81.2748 34.224 88.1804 40.5575 92.0622 42.1919C91.0815 12.7718 97.5784 9.09432 102.482 6.02973C107.385 4.19097 115.557 5.2125 117.192 4.80389C116.211 3.33288 113.106 2.1479 111.676 1.73929C103.095 0.513449 88.3847 2.3522 81.0296 12.7718Z" fill="#FFDFBB"/>
<path d="M31.0231 146.409C36.9071 134.151 5.63785 119.5 0.121582 113.779C18.674 110.687 17.7432 108.165 31.0231 104.079L59.1954 136.789C42.7043 145.035 47.5142 140.912 31.0231 146.409Z" fill="url(#paint0_linear_265_1989)"/>
<path d="M50.5018 65.2241C52.3525 65.2241 53.8528 63.2952 53.8528 60.9158C53.8528 58.5364 52.3525 56.6075 50.5018 56.6075C48.6512 56.6075 47.1509 58.5364 47.1509 60.9158C47.1509 63.2952 48.6512 65.2241 50.5018 65.2241Z" fill="#E2942F"/>
<path d="M76.3503 65.2241C78.201 65.2241 79.7013 63.2952 79.7013 60.9158C79.7013 58.5364 78.201 56.6075 76.3503 56.6075C74.4997 56.6075 72.9995 58.5364 72.9995 60.9158C72.9995 63.2952 74.4997 65.2241 76.3503 65.2241Z" fill="#E2942F"/>
<path d="M72.043 97.2971C66.2986 98.2545 60.5542 98.2545 55.2885 97.2971C48.5868 95.861 43.7998 88.2018 43.7998 82.4574V81.9788C43.7998 76.2344 48.5868 68.5752 55.2885 67.1391C61.0329 66.1817 66.7773 66.1817 72.043 67.1391C78.7448 68.5752 83.5317 76.2344 83.5317 81.9788V82.4574C83.5317 88.2018 78.7448 95.861 72.043 97.2971Z" stroke="#E2942F" stroke-width="3.35089" stroke-miterlimit="10"/>
<path d="M50.501 80.0638C50.501 80.0638 61.9897 91.5526 76.3507 80.0638" stroke="#E2942F" stroke-width="3.59024" stroke-miterlimit="10" stroke-linecap="round" stroke-linejoin="round"/>
<defs>
<linearGradient id="paint0_linear_265_1989" x1="29.6585" y1="104.079" x2="29.6585" y2="146.409" gradientUnits="userSpaceOnUse">
<stop stop-color="#D9D9D9"/>
<stop offset="1" stop-color="#EAEAEA"/>
</linearGradient>
</defs>
</svg>
