<svg width="181" height="157" viewBox="0 0 181 157" fill="none" xmlns="http://www.w3.org/2000/svg">
<path d="M100.03 100.523C102.482 131.414 85.933 150.578 77.3522 156.299C26.4799 150.783 6.86651 84.5876 17.899 51.49C26.7251 25.0119 56.7172 17.1665 70.6101 16.5536C82.8684 0.86287 103.912 -0.199558 112.901 1.23057C125.773 0.617648 161.322 45.3607 176.032 79.0712C187.8 106.04 171.129 131.169 161.322 140.363L122.708 115.233L112.901 114.008L100.03 100.523Z" fill="#E8B461"/>
<mask id="mask0_265_1989" style="mask-type:alpha" maskUnits="userSpaceOnUse" x="14" y="0" width="167" height="157">
<path d="M100.03 100.523C102.482 131.414 85.933 150.578 77.3522 156.299C26.4799 150.783 6.86651 84.5876 17.899 51.49C26.7251 25.0119 56.7172 17.1665 70.6101 16.5536C82.8684 0.86287 103.912 -0.199558 112.901 1.23057C125.773 0.617648 161.322 45.3607 176.032 79.0712C187.8 106.04 171.129 131.169 161.322 140.363L122.708 115.233L112.901 114.008L100.03 100.523Z" fill="#E8B461"/>
</mask>
<g mask="url(#mask0_265_1989)">
<path d="M178.482 111.537L158.384 97.9753L159.736 109.412" stroke="#E2942F" stroke-width="2.38074" stroke-miterlimit="10" stroke-linecap="round" stroke-linejoin="round"/>
<path d="M161.809 84.1893C175.045 84.4683 177.912 97.1533 165.494 102.784C165.215 116.019 152.53 118.887 146.899 106.469C133.664 106.19 130.796 93.5049 143.214 87.8741C143.493 74.6387 156.462 72.1543 161.809 84.1893Z" fill="#E2942F"/>
<path d="M149.826 96.0134L141.053 97.764" stroke="#E8B461" stroke-width="1.19037" stroke-miterlimit="10" stroke-linecap="round" stroke-linejoin="round"/>
<path d="M154.472 99.0917L155.939 107.482" stroke="#E8B461" stroke-width="1.19037" stroke-miterlimit="10" stroke-linecap="round" stroke-linejoin="round"/>
<path d="M156.884 94.3463L164.991 92.4959" stroke="#E8B461" stroke-width="1.19037" stroke-miterlimit="10" stroke-linecap="round" stroke-linejoin="round"/>
<path d="M152.521 91.6511L151.054 83.2608" stroke="#E8B461" stroke-width="1.19037" stroke-miterlimit="10" stroke-linecap="round" stroke-linejoin="round"/>
<path d="M107.385 10.4244C92.675 20.7215 96.3525 74.7809 100.03 100.523L112.901 126.879L126.386 117.072C110.205 95.4975 106.976 36.9842 107.385 10.4244Z" fill="#E2942F"/>
</g>
<path d="M24.0285 52.7157C27.0931 42.7047 39.8418 21.7021 66.3199 17.7794C57.5347 22.887 36.7772 37.025 24.0285 52.7157Z" fill="#915717"/>
<path d="M18.8846 68.6759C17.8175 99.9887 56.9835 137.809 77.3524 153.234C26.9821 142.878 17.4001 94.4069 18.8846 68.6759C18.9199 67.6388 18.9994 66.6088 19.1251 65.587C19.0272 66.5744 18.9463 67.6055 18.8846 68.6759Z" fill="#915717"/>
<path d="M81.0296 13.4891C75.1456 21.8248 67.954 25.5432 65.0938 26.3604C74.9004 31.2637 82.2555 25.9518 84.7071 22.6829C81.2748 34.9413 88.1804 41.2748 92.0622 42.9092C91.0815 13.4891 97.5784 9.8116 102.482 6.74701C107.385 4.90826 115.557 5.92979 117.192 5.52117C116.211 4.05017 113.106 2.86519 111.676 2.45657C103.095 1.23073 88.3847 3.06949 81.0296 13.4891Z" fill="#FFDFBB"/>
<path d="M31.0231 147.126C36.9071 134.868 5.63785 120.217 0.121582 114.497C18.674 111.404 17.7432 108.882 31.0231 104.796L59.1954 137.507C42.7043 145.752 47.5142 141.629 31.0231 147.126Z" fill="url(#paint0_linear_265_1989)"/>
<path d="M50.5018 65.9414C52.3525 65.9414 53.8528 64.0125 53.8528 61.6331C53.8528 59.2537 52.3525 57.3248 50.5018 57.3248C48.6512 57.3248 47.1509 59.2537 47.1509 61.6331C47.1509 64.0125 48.6512 65.9414 50.5018 65.9414Z" fill="#E2942F"/>
<path d="M76.3503 65.9414C78.201 65.9414 79.7013 64.0125 79.7013 61.6331C79.7013 59.2537 78.201 57.3248 76.3503 57.3248C74.4997 57.3248 72.9995 59.2537 72.9995 61.6331C72.9995 64.0125 74.4997 65.9414 76.3503 65.9414Z" fill="#E2942F"/>
<path d="M72.043 98.0144C66.2986 98.9718 60.5542 98.9718 55.2885 98.0144C48.5868 96.5783 43.7998 88.9191 43.7998 83.1747V82.6961C43.7998 76.9517 48.5868 69.2925 55.2885 67.8564C61.0329 66.899 66.7773 66.899 72.043 67.8564C78.7448 69.2925 83.5317 76.9517 83.5317 82.6961V83.1747C83.5317 88.9191 78.7448 96.5783 72.043 98.0144Z" stroke="#E2942F" stroke-width="3.35089" stroke-miterlimit="10"/>
<path d="M50.501 80.7811C50.501 80.7811 61.9897 92.2698 76.3507 80.7811" stroke="#E2942F" stroke-width="3.59024" stroke-miterlimit="10" stroke-linecap="round" stroke-linejoin="round"/>
<defs>
<linearGradient id="paint0_linear_265_1989" x1="29.6585" y1="104.796" x2="29.6585" y2="147.126" gradientUnits="userSpaceOnUse">
<stop stop-color="#D9D9D9"/>
<stop offset="1" stop-color="#EAEAEA"/>
</linearGradient>
</defs>
</svg>
