<svg width="63" height="130" viewBox="0 0 63 130" fill="none" xmlns="http://www.w3.org/2000/svg">
<path d="M30.676 123.17C28.6617 127.199 22.2526 128.481 16.0265 128.481C9.80047 128.298 3.39131 127.199 1.377 123.17C-0.637313 119.142 5.58873 112 16.0265 112C26.4643 112 32.8735 119.142 30.676 123.17Z" fill="#F6CE55"/>
<path d="M30.676 123.17C28.6617 127.199 22.2526 128.481 16.0265 128.481C9.80047 128.298 3.39131 127.199 1.377 123.17C-0.637313 119.142 5.58873 112 16.0265 112C26.4643 112 32.8735 119.142 30.676 123.17Z" stroke="#1E1912" stroke-width="1.28183" stroke-miterlimit="10"/>
<path d="M61.6228 123.17C59.6085 127.199 53.1993 128.481 46.9733 128.481C40.7472 128.298 34.3381 127.199 32.3238 123.17C30.3095 119.142 36.5355 112 46.9733 112C57.4111 112 63.6371 119.142 61.6228 123.17Z" fill="#F6CE55"/>
<path d="M61.6228 123.17C59.6085 127.199 53.1993 128.481 46.9733 128.481C40.7472 128.298 34.3381 127.199 32.3238 123.17C30.3095 119.142 36.5355 112 46.9733 112C57.4111 112 63.6371 119.142 61.6228 123.17Z" stroke="#1E1912" stroke-width="1.28183" stroke-miterlimit="10"/>
<path d="M15.4771 127.748V120.79" stroke="#1E1912" stroke-width="1.37339" stroke-miterlimit="10" stroke-linecap="round" stroke-linejoin="round"/>
<path d="M46.9731 127.748V120.79" stroke="#1E1912" stroke-width="1.37339" stroke-miterlimit="10" stroke-linecap="round" stroke-linejoin="round"/>
<path d="M60.0001 87.9237L60.0001 90.9572C60.0001 106.995 46.9419 120 30.8379 120C14.7338 120 1.66113 106.995 1.66113 90.9572L1.66113 87.9237C1.66113 81.7262 3.61402 75.9786 6.93685 71.276C6.93685 71.276 7.40321 70.71 8.17562 69.6359C8.21934 69.5779 8.27764 69.5198 8.32136 69.4472C11.7462 64.614 20.403 50.6514 20.4176 32.3781L20.4176 12.247C20.4176 6.58647 25.0229 2 30.7067 2L30.9545 2C36.6383 2 41.2436 6.58647 41.2436 12.247L41.2436 32.3781C41.2582 50.6514 49.915 64.614 53.3398 69.4472C53.3836 69.5198 53.4419 69.5779 53.4856 69.6359C54.258 70.71 54.7244 71.276 54.7244 71.276C58.0472 75.9786 60.0001 81.7262 60.0001 87.9237Z" fill="white" stroke="#231815" stroke-width="2.03435" stroke-miterlimit="10"/>
<path d="M29.1623 15.1519C30.7722 14.9636 32.4118 15.0336 33.9993 15.3584C35.8398 15.8429 37.1813 18.0378 37.1081 19.7123L37.1028 19.8338C37.0296 21.5083 35.501 23.5942 33.6256 23.9065C32.0157 24.0948 30.376 24.0248 28.7886 23.6999C26.948 23.2155 25.6066 21.0206 25.6798 19.3461C25.6816 19.3055 25.6833 19.265 25.6851 19.2245C25.7583 17.55 27.2732 15.4636 29.1623 15.1519Z" fill="#FBC83B"/>
<path d="M29.1623 15.1519C30.7722 14.9636 32.4118 15.0336 33.9993 15.3584C35.8398 15.8429 37.1813 18.0378 37.1081 19.7123L37.1028 19.8338C37.0296 21.5083 35.501 23.5942 33.6256 23.9065C32.0157 24.0948 30.376 24.0248 28.7886 23.6999C26.948 23.2155 25.6066 21.0206 25.6798 19.3461C25.6816 19.3055 25.6833 19.265 25.6851 19.2245C25.7583 17.55 27.2732 15.4636 29.1623 15.1519V15.1519Z" stroke="#1E1912" stroke-width="1.32618" stroke-miterlimit="10"/>
<path d="M27.7754 18.7007C27.7754 18.7007 31.0954 21.9853 35.1332 18.7007" stroke="#1E1912" stroke-width="1.4209" stroke-linecap="round" stroke-linejoin="round"/>
<path d="M28.328 13.2574C28.998 13.2574 29.5412 12.4696 29.5412 11.4977C29.5412 10.5258 28.998 9.73792 28.328 9.73792C27.6579 9.73792 27.1147 10.5258 27.1147 11.4977C27.1147 12.4696 27.6579 13.2574 28.328 13.2574Z" fill="#1E1912"/>
<path d="M34.0262 13.2574C34.6963 13.2574 35.2395 12.4696 35.2395 11.4977C35.2395 10.5258 34.6963 9.73792 34.0262 9.73792C33.3562 9.73792 32.813 10.5258 32.813 11.4977C32.813 12.4696 33.3562 13.2574 34.0262 13.2574Z" fill="#1E1912"/>
</svg>
